<svg xmlns="http://www.w3.org/2000/svg" viewBox="0 0 512 512" fill="white" stroke="white"><path stroke="white" d="m253 36-18 2-15 32-33-13c-16 7-11 30-20 38-28 23-84 69-90 85-13 34-19 70-20 105 14 7 31 20 47 34 14 15 35 32 41 50l2 7-7 4c-11 5-9 17-11 26l-18-4c2-13 4-25 14-33a303 303 0 0 0-68-63c2 46 1 82 21 114l32 6v28l42-4-5 31c92 38 247-58 288-163 9-22 48-45 50-67 3-36-8-70-28-101-14 13-30 17-46 10l20 24-14 11-27-32-1-18-17-18-33 10-6-18 29-8-8-22c-3-12-2-25 5-36-36-5-73-17-106-17zm121 27c-4 5-4 13-2 22s7 19 13 28 14 18 22 24c23 13 42 8 39-17-2-16-17-30-23-36-13-13-38-35-49-21zm-36 4-10 22-25 9-18-10zM233 96l31 11 28 47 32 14-8 16-37-16zm-43 31c9 0 19 3 25 12 6 5 17 8 28 13l-6 16-19-7-4 10a65 65 0 0 1-3 5c12 7 24 12 30 12l-2 18c-13-1-27-8-41-16a70 70 0 0 1-5 4l-20 10c3 15 3 30 3 42l-18-1-3-36h-18c0 13-2 28-12 42l-15-10c11-16 9-31 8-50-2-5-1-10 0-15 1-6 5-11 9-16a87 87 0 0 1 63-33zm-1 18h-2c-8 1-17 4-23 7-7 4-17 11-23 19l-6 10c-1 5 2 9 6 10h13c10-2 21-7 28-12 6-4 12-10 16-17 4-12 0-17-9-17zm260 38 12 62-54 41 33-57zm-62 20 4 18-66 12-10 25-25 12 21-53zm-11 65 16 8c-7 15-10 24-9 33l18 2-2 18c-21-3-41-2-50 5-5 3-8 8-9 15-2 7-1 18 4 32l-43 14-6-17 28-9c-2-8-2-16-1-23 2-11 7-20 15-26l-7-17c-3-9 0-28 0-28s15 16 17 23l6 14 12-2c0-13 3-26 11-42zm-146 4-21 47-2 65-17-68s36-44 40-44zm39 140a85 85 0 0 1 8 0c13 1 27 5 40 9l-5 18c-13-4-26-8-37-9l-15 1-15-14c7-3 14-5 21-5a76 76 0 0 1 3 0zm-39 15 14 13c-11 17-14 27-31 38l6-27c2-8 5-17 11-24z" fill="#fff"/></svg>