<svg xmlns="http://www.w3.org/2000/svg" viewBox="0 0 512 512" fill="white" stroke="white"><path stroke="white" d="m453 28-91 118 51 5 80-43-40-9zm-129-8-36 6 8 27zm10 19-67 100 33 1 101-82zm-99 21c-53 0-105 19-144 55h88v18H73c-20 22-35 49-44 78h182v18H24l-5 30h112v18H19c0 21 3 42 9 62h247v18H34c7 16 16 31 26 46h103v18H75c10 11 21 21 33 30h119v18h-89a216 216 0 0 0 277-75l-52-43 9-33-66 8 4-76-92 54 44-101-67-28 94-108c-18-5-36-7-55-7zm208 100-50 35 97-26zm-130 10-32 55 45-26zm134 37-105 39-10 33 105 2zm-32 89 5 39 60 35-5-41zm33 85 18 78 22-44z" fill="#fff"/></svg>