<svg xmlns="http://www.w3.org/2000/svg" viewBox="0 0 512 512" fill="white" stroke="white"><path stroke="white" d="M343 18c-4 12-3 21-24 25 20-3 22 10 24 21l-8 7c-22 21-33 41-49 62-6 1 6-54 31-80-92-12-109 215-81 222-51 18-72-98-59-157-37 4-62 39-68 60 3 27 6 55 39 81-32 3-42-28-56-54-78 105 106 106 137 94-93 71-150 52-197 39-41 85 61 56 107 36-18 31-72 37-89 41 62 51 175-67 200-107 3 66-74 135-122 172 43 2 83-18 102-55 0 10-4 22-10 35 15-2 40-6 49-24 25-54 38-93 15-138 30 33 64 65 59 114 27-15 49-33 25-60 14 2 23 8 32 14 14-3 35-20 34-33-32-30-83-44-134-56 72-20 137-10 176 6 5-12 9-30 6-42-17-10-63-8-84-6 18-15 57-21 82-21-2-68-163 28-182 43 32-59 123-113 178-121-13-31-37-34-64-23 2-9 7-17 23-15-21-3-20-13-23-25-3 13-5 17-20 27 14-3 17 6 18 14a412 412 0 0 0-136 133c-22-24 51-122 108-188-3-9-22-6-38 5 1-8 1-22 18-19-15-10-17-14-20-27zm-167 0c6 11 13 18-1 35 14-16 24-7 34 0-5-7-16-18-1-28-17 3-21 2-32-7zM48 27c-3 11-2 21-24 25 21-3 22 10 25 22 1-8 0-23 18-21-15-9-17-13-19-26zm419 5c2 11 1 14-8 25 13-7 16 6 19 12-1-10-3-21 14-24-18 3-20-5-25-13zM125 84c0 18-12 18-22 18 7 3 20 3 15 18 10-11 13-12 25-12-9-4-18-5-18-24zm-54 70c-8 8-13 17-33 10 19 8 14 20 10 32 6-7 12-21 26-9-8-16-8-20-3-33zm383 129c-3 9-2 16-18 19 16-2 17 8 19 17 1-6 0-18 14-16-12-7-13-10-15-20zM69 294c-13 13-16 13-30 13 10 5 20 7 19 29 2-22 15-20 28-20-8-3-24-5-17-22zm395 51c3 11 9 19-8 33 17-13 24-2 33 7-3-8-12-20 5-27-18-1-21-3-30-13zm-139 72c-3 12-4 25-25 22 21 4 20 14 23 25 3-13 4-17 20-26-19 3-17-13-18-21zM84 438c-3 16-5 20-23 32 22-4 20 15 21 25 4-15 5-30 30-27-25-4-24-16-28-30zm366 12c-7 9-10 19-31 14 20 5 16 18 14 30 5-7 9-22 25-12-11-15-11-19-8-32z" fill="#fff"/></svg>