<svg xmlns="http://www.w3.org/2000/svg" viewBox="0 0 512 512" fill="white" stroke="white"><path stroke="white" d="M299 21C199 21 103 126 83 255c-7 46-4 88 8 125a243 243 0 0 1-36-117c-12 36-8 83 14 127a179 179 0 0 0 158 98c99 0 196-104 215-233 10-60 1-115-22-157 22 22 37 46 45 70 1-31-14-66-44-96a167 167 0 0 0-122-51zm-6 36c40 0 74 21 96 54 16 43 12 108 1 148-16 55-41 96-80 126-42 32-98 24-116-6l-3-7c12 14 38 15 62 1 25-15 38-41 28-58-10-18-39-20-65-5-10 6-17 13-23 21l2-4c-19 25-25 52-13 73 39 45 98 25 141-7a253 253 0 0 0 92-138c-17 109-99 197-183 197-35 0-66-16-87-43-27-48-16-142 4-185 27-55 66-122 135-116 46 4 63 58 39 116-9 20-22 39-37 54 25-17 47-42 60-73 24-58 7-113-39-117-86-6-138 59-178 129-9 20-16 40-21 60l3-22c17-109 98-198 182-198z" fill="#fff"/></svg>