<svg xmlns="http://www.w3.org/2000/svg" viewBox="0 0 512 512" fill="white" stroke="white"><path stroke="white" d="M229 22v40c-31 1-61 9-89 24l21 37a168 168 0 0 1 246 150c0 27-6 52-17 75l-6-3-27-12a132 132 0 0 1-144 73l-7 33A169 169 0 0 1 86 199l-37-22C9 255 21 353 83 419l-31 31 13 13 52-51c24 21 53 36 86 42l-7 32 4 1 18 2a214 214 0 0 0 186-74l3-4a212 212 0 0 0 11-14l2-4 6-9 37 15 7-17-66-28c12-24 18-51 18-80h29c0-17-2-33-6-49l41-5-3-19-43 6A212 212 0 0 0 299 70l11-37-19-5-10 38c-11-2-22-4-33-4V22h-19zM124 95c-11 7-21 14-30 23l30 30 21-16-21-37zm-43 36c-9 9-16 19-23 30l38 21 15-21-30-30zm84 61a109 109 0 1 0 182 81h-19a90 90 0 1 1-151-67l-12-14zm74 24c-33 0-61 27-61 60a61 61 0 0 0 122 0c0-33-27-61-61-61zm0 18a42 42 0 0 1 40 58 27 27 0 1 0-46 26 42 42 0 0 1 6-84z" fill="#fff"/></svg>