<svg xmlns="http://www.w3.org/2000/svg" viewBox="0 0 512 512" fill="white" stroke="white"><path stroke="white" d="M277 22c-97-1-173 86-198 179a185 185 0 0 0-9 68C52 214 53 132 90 63 2 127-10 300 100 399c-23-3-46-10-70-25 79 97 161 102 227 92-23 12-50 20-83 19 93 38 158-8 195-61-4 20-11 39-23 60 75-62 95-125 95-181 5 52-7 120-55 191 137-80 141-309-45-397l-5-3c35 0 71 10 105 38-54-94-142-91-206-66 27-20 61-33 103-32-21-8-41-12-61-12zm-20 72c27 0 53 7 76 19 11 35 11 85-36 111 57-8 69-56 66-90 32 26 53 65 58 108a68 68 0 0 0-48-19l-13 1c56 13 58 53 56 82-6 19-14 37-26 53 4-39-5-71-25-92-25-26-67-32-115-13-43 16-75 10-94-10-19-19-27-55-16-104 22-21 49-36 80-42 25 5 47 25 53 49 8 30-7 63-37 70-22 6-46-6-52-28-4-16 5-34 20-38h9c-3 3-5 8-5 13a21 21 0 1 0 36-14c-9-15-27-21-44-17-27 7-40 35-34 61 8 33 44 49 75 41 40-10 61-54 50-92-5-21-17-37-34-49zm-140 73c-3 39 6 70 25 90 26 27 67 32 115 14 44-16 75-11 95 9 18 20 26 55 16 104-23 21-51 35-82 41-23-5-44-21-53-44-11-28 1-64 30-75 22-8 48 1 56 23 6 16-1 35-17 41-3 1-7 2-10 1 3-3 4-8 4-13a21 21 0 1 0-38 10c9 19 32 26 51 19 26-9 37-40 28-64-9-25-33-38-57-38-8 0-16 1-24 4-39 15-55 61-40 99 6 16 17 30 31 39-28-1-55-9-77-23-9-34-6-79 38-103-53 8-67 49-67 82-28-27-47-63-52-104 14 13 34 21 61 18-55-13-58-50-56-80 5-18 13-35 23-50z" fill="#fff"/></svg>