<svg xmlns="http://www.w3.org/2000/svg" viewBox="0 0 512 512" fill="white" stroke="white"><path stroke="white" d="M394 20h-9a57 57 0 1 0 23 112c9 23 15 46 16 67a28 28 0 0 0-3 50 148 148 0 0 1-53 83 116 116 0 0 0-26-149c-33-35-80-58-130-58-45 0-93 20-135 64a40 40 0 0 0-58 41 40 40 0 1 0 72-29c39-41 81-57 121-57 21 0 42 4 61 13a123 123 0 0 0-22 1c-17 2-32 8-45 16a181 181 0 0 0-95 208 51 51 0 1 0 19-4 158 158 0 0 1 26-137 116 116 0 0 0-1 56c7 58 40 112 92 141 45 27 106 33 175 7a39 39 0 0 0 71-29 39 39 0 1 0-78 12c-65 24-118 18-159-6-24-14-44-33-58-57a116 116 0 0 0 111 17 179 179 0 0 0 130-130 28 28 0 0 0 4-53c-2-24-8-49-18-75a57 57 0 0 0-32-104zM268 185l13 54 46-29-29 46 53 12-54 12 30 47-47-30-12 54-12-53-46 29 30-47-54-12 53-12-29-46 46 29 12-54zm0 72c-7 0-12 5-12 12s5 12 12 12 13-5 13-12-6-12-13-12z" fill="#fff"/></svg>