<svg xmlns="http://www.w3.org/2000/svg" viewBox="0 0 512 512" fill="white" stroke="white"><path stroke="white" d="M256 32a224 224 0 0 0-100 24h200a224 224 0 0 0-100-24zM104 92a224 224 0 0 0-30 35l355-13a224 224 0 0 0-21-22H104zm-50 68a224 224 0 0 0-7 16l421 8a224 224 0 0 0-10-24H54zm-13 34a224 224 0 0 0-6 29l441-8a224 224 0 0 0-3-13l-432-8zm438 39-446 8a224 224 0 0 0-1 15 224 224 0 0 0 2 23h251l-9 5c-5 3-10 8-14 13H36a224 224 0 0 0 8 30h213c4 9 10 17 19 22l10 6-225 11a224 224 0 0 0 11 17l360 11a224 224 0 0 0 29-48l-99 5 2-2c9-5 16-13 19-22h85a224 224 0 0 0 8-30h-98c-3-5-8-10-14-13l-9-5h124a224 224 0 0 0 1-16l-76-11 76-6a224 224 0 0 0-1-13zm-159 57c14 0 26 4 35 9 8 5 12 12 12 18s-4 12-12 17c-9 5-21 9-35 9s-26-4-34-9c-9-5-12-12-12-18s3-12 12-17c8-5 20-9 34-9zM96 413a224 224 0 0 0 19 17h282a224 224 0 0 0 19-17H96zm83 53a224 224 0 0 0 77 14 224 224 0 0 0 78-14H179z" fill="#fff"/></svg>