<svg xmlns="http://www.w3.org/2000/svg" viewBox="0 0 512 512" fill="white" stroke="white"><path stroke="white" d="M256 62A194 194 0 0 0 95 363c-13 0-24 0-32-2-14-3-20-8-23-13-2-6-1-14 6-26l6-8-5-22c-7 7-12 14-16 21-9 14-13 29-7 42 5 13 18 20 35 24 13 3 30 3 49 2a193 193 0 0 0 341-145c14-12 25-25 32-37 9-14 13-29 7-42-5-13-18-20-35-24l-26-3 12 20 10 1c14 3 20 8 23 13 2 6 1 14-6 26-5 7-12 16-21 24l4 22-9 7-14 12a65 65 0 0 1-110 64l-28 13c-62 26-122 43-169 48l-11 1-13-18 22-1c44-5 103-21 164-47l25-11-1-2a65 65 0 0 1 112-64l12-9 16-15A194 194 0 0 0 255 62zm108 168-18 3a46 46 0 0 0-24 61 46 46 0 1 0 86-36c-8-18-25-28-44-28z" fill="#fff"/></svg>