<svg xmlns="http://www.w3.org/2000/svg" viewBox="0 0 512 512" fill="white" stroke="white"><path stroke="white" d="M254 16v14-14zm0 14c-1 36-5 126-37 139-31 13-95-51-120-78 25 28 82 98 69 129-13 32-101 36-136 37 35 0 123 4 136 36s-46 98-70 123c25-24 89-84 121-71s36 102 37 137c0-35 5-124 37-137s106 48 132 72c-26-24-94-92-81-124 13-31 102-36 139-36-37-1-125-5-139-37-13-32 54-103 80-130-27 26-100 92-131 79-32-13-37-103-37-139zm168 60 11-11-11 11zm59 167h15-15zm-58 160 10 9-10-9zm-169 65v14-14zM96 416l-10 10 10-10zM30 257H16h14zM97 91zm237-23-28 30c-8 9-13 35-1 40s27-17 27-30l2-40zm-156 0 2 40c0 13 15 35 27 30s7-31-1-40l-28-30zm266 110-40 2-11 2c-11 5-22 16-19 25 5 12 31 7 40-1l30-28zm-376 0 30 28c9 8 35 13 40 1 4-9-9-20-20-25l-10-2-40-2zm187 4c10-1 20 1 30 5a75 75 0 1 1-30-5zm1 15a59 59 0 1 0 0 118 59 59 0 0 0 0-118zM122 298c-5 0-11 1-16 3l-8 5-30 28 40-2c13 0 35-15 30-27-2-5-9-7-16-7zm266 0-8 2c-3 1-5 3-6 5-5 12 17 27 30 27l40 2-30-28c-2-2-5-4-9-5-5-2-11-3-17-3zm-185 76h-4c-10 4-19 20-19 30l-2 40 28-30c8-9 13-35 1-40h-4zm105 0h-3c-12 5-7 31 1 40l28 30-2-40c0-12-13-31-24-30z" fill="#fff"/></svg>