<svg xmlns="http://www.w3.org/2000/svg" viewBox="0 0 512 512" fill="white" stroke="white"><path stroke="white" d="m256 27-39 26v23l27 27h24l27-27V53l-39-26zM119 41l-11 46h43V41h-32zm242 0v46h43l-11-46h-32zM169 55v18h30V55h-30zm144 0v18h30V55h-30zm-87 56c-7 4-9 7-9 9s2 5 9 9 18 6 30 6 23-3 30-6c7-4 9-7 9-9s-2-5-9-9l-10 10h-40l-10-10zm-27 33c-62 6-119 23-154 50l24 24c15-9 32-16 50-22v-4c0-6 3-12 7-16s10-7 15-8c6-2 12-2 18-2a64 64 0 0 1 18 4l22 8v-34zm114 0v34l22-8a64 64 0 0 1 18-4c6 0 12 0 18 2s11 4 15 8 7 10 7 16v4c18 6 35 13 50 22l24-24c-35-27-92-44-154-50zm-96 0v81c14 11 26 15 39 15 13 1 25-4 39-15v-81l-1 1c-10 5-24 8-38 8s-28-3-38-8l-1-1zm-62 40-9 1-6 3 59 27v-18l-28-11-13-2a49 49 0 0 0-3 0zm202 0a49 49 0 0 0-3 0l-13 2-28 11v18l59-27-6-3-9-1zM41 216v43c38 56 126 86 215 86s177-30 215-86v-43c-52 55-134 81-215 81S93 270 41 216zm164 23-57 22 42 12 41-19c-9-4-18-8-26-15zm102 0c-8 7-17 11-26 15l41 19 42-12-57-22zm-51 23-34 15a350 350 0 0 0 34 2l34-2-34-15zm-39 99v52c6 11 22 18 39 18s33-7 39-18v-52a429 429 0 0 1-39 1l-39-1zm16 85v18c0 20 46 20 46 0v-18a82 82 0 0 1-46 0z" fill="#fff"/></svg>