<svg xmlns="http://www.w3.org/2000/svg" viewBox="0 0 512 512" fill="white" stroke="white"><path stroke="white" d="M257 20c24 54-46 66-41 126l-44-40 15 68-66-24 40 56-70 4 56 35c-56 26-76-35-127 10 54-24 66 46 126 41l-40 44 68-15-24 66 56-40 4 70 35-56c26 56-35 76 10 127-24-54 46-66 41-126l44 40-15-68 66 24-40-56 70-4-56-35c56-26 76 35 127-10-54 24-66-46-126-41l40-44-68 15 24-66-56 40-3-70-36 56c-26-56 35-76-10-127zm-1 135a102 102 0 1 1 0 203 102 102 0 0 1 0-203zm0 20a81 81 0 1 0 0 162 81 81 0 0 0 0-162zm-36 34c19 0 36 12 36 30v56l-19-6s30-71-17-71c-19 0-31 10-31 10 8-13 20-19 31-19zm-2 19c10 0 20 5 23 17h-12v3c0 4-5 8-13 8-7 0-12-4-12-8v-3h-12c0-8 10-15 22-17h4zm76 0c13 0 26 8 26 17h-12v3c0 4-5 8-12 8s-13-4-13-8v-3h-12c3-11 11-16 21-17h2zm-45 77 7 3c9-7 13 1 27 1 0 0-11 9-27 9s-27-9-27-9c10 0 15-4 20-4z" fill="#fff"/></svg>