<svg xmlns="http://www.w3.org/2000/svg" viewBox="0 0 512 512" fill="white" stroke="white"><path stroke="white" d="m416 48-6 14h-31l24 11-35 18 25-4-96 129-2-18-7 30-1 1-31-4 21 13-78 36-14-21v28l-4 2-19-8 6 13-56 21-7-24-7 24-28 6 20 8-55 97-6-12-1 23H15l12 9-11 16 15-4 3 12 6-15 29-12-19-6 51-90 14 17-3-29 1-1 20 7-9-11 44-17-3 15 19-21 12 26 1-30 21 4-9-11 68-32-7 19 19-19 12 15 1-13 55 27-13 19 21-8 15 30 3-35 28 5-24-16 96-104 13 10-4-20 5-5-6-7 2-3-3-24-6 17-51-66 14-20-25 5-2-2zm-5 45 8 22 5-18 41 54-17-3 18 13-19 10h17l-89 97-9-18-1 21-55-27 33-10-36-1z" fill="#fff"/></svg>