<svg xmlns="http://www.w3.org/2000/svg" viewBox="0 0 512 512" fill="white" stroke="white"><path stroke="white" d="M253 17a235 235 0 1 0 1 471 235 235 0 0 0-1-471zm115 52a216 216 0 0 1 96 233l-34-18 22 55c-10 22-23 42-38 59l-43-31-65 48-62 7-14-42-49 27-68-19 9 36c-29-22-51-50-66-83l25-37 33 18 59-10 3-41-38-2 5-18 31-25-25-16 67-38-45-30-67 40-49-15c13-32 35-60 62-82l-4 44 43-34 72 22-22-27 27-14 27 28 71 10-4-35 42 13-1-23zm1 120-91 10 29 44 3 64 29 14 12-28 62 48-17-47 6-48-44-23 11-34zm-148 3-32 22 37 14 17-14-22-22zm22 145 19 53 20-43-39-10z" fill="#fff"/></svg>