<svg xmlns:xlink="http://www.w3.org/1999/xlink" xmlns="http://www.w3.org/2000/svg" viewBox="0 0 19 19" fill="white">
  <g transform="matrix(1, 0, 0, 1, 9.5, 9.5)">
    <path d="M0.0 -2.4 Q-1.0 -2.4 -1.7 -1.7 -2.4 -1.0 -2.4 0.0 -2.4 1.0 -1.7 1.7 -1.0 2.4 0.0 2.4 1.0 2.4 1.7 1.7 2.4 1.0 2.4 0.0 2.4 -1.0 1.7 -1.7 1.0 -2.4 0.0 -2.4 M3.8 -6.45 L5.55 -7.9 7.9 -5.55 6.45 -3.8 7.25 -1.85 9.5 -1.65 9.5 1.65 7.25 1.85 6.45 3.8 7.9 5.55 5.55 7.9 3.8 6.4 1.85 7.25 1.65 9.5 -1.65 9.5 -1.85 7.25 -3.8 6.4 -5.55 7.9 -7.9 5.55 -6.4 3.8 -7.25 1.85 -9.5 1.65 -9.5 -1.65 -7.25 -1.85 -6.4 -3.8 -7.9 -5.55 -5.55 -7.9 -3.8 -6.45 -1.85 -7.25 -1.65 -9.5 1.65 -9.5 1.85 -7.25 3.8 -6.45" fill="#ffffff" fill-rule="evenodd"/>
  </g>
</svg>