<svg xmlns:xlink="http://www.w3.org/1999/xlink" xmlns="http://www.w3.org/2000/svg" viewBox="-10.00 -10.00 20.00 20.00" fill="white">



<g id="shape_187">



<path fill="white" d="M 0.00,-10.00 M 0.00,-10.00 q -1.40,0.00 -1.45,0.40 l 0.05,0.20 l -0.10,0.35 l -0.05,0.10 l 0.05,0.05 l 0.15,0.00 l 0.00,0.45 l -0.10,0.10 l -0.10,0.35 l 0.10,0.20 l 0.10,0.20 l 0.00,0.85 l -0.40,1.35 q -1.00,2.65 -1.40,5.25 q -0.35,2.20 -0.15,4.40 l -0.20,0.40 l -0.75,0.60 l -0.15,0.40 l 0.00,2.70 l 0.25,0.25 l 0.80,0.00 q 0.00,0.35 0.85,0.60 l 2.10,0.30 l 0.00,0.25 l 0.25,0.25 l 0.35,0.00 l 0.25,-0.25 l 0.00,-0.25 l 2.10,-0.30 l 0.85,-0.60 l 0.80,0.00 l 0.20,-0.25 l 0.00,-2.70 l -0.15,-0.40 l -0.70,-0.60 l -0.20,-0.40 q 0.15,-2.20 -0.15,-4.40 q -0.40,-2.60 -1.40,-5.25 l -0.45,-1.35 l 0.00,-0.85 l 0.15,-0.20 l 0.10,-0.20 l -0.10,-0.35 l -0.15,-0.10 l 0.00,-0.45 l 0.20,0.00 l 0.00,-0.15 q -0.20,-0.20 -0.10,-0.35 l 0.05,-0.20 q 0.00,-0.40 -1.50,-0.40 M 1.55,-1.80 q 0.75,1.00 0.75,2.35 q 0.00,1.30 -0.75,2.25 q -0.65,0.90 -1.55,0.90 q -0.85,0.00 -1.55,-0.90 q -0.70,-0.90 -0.70,-2.25 q 0.00,-1.40 0.70,-2.35 q 0.65,-0.85 1.55,-0.85 q 0.90,0.00 1.55,0.85 M 6.85,-1.10 l -0.05,0.20 l 0.00,0.10 l 0.10,0.00 l 0.00,0.20 l -0.05,0.05 l -0.10,0.20 l 0.15,0.25 l 0.00,0.45 l -0.25,0.75 q -0.55,1.65 -0.75,2.80 q -0.20,1.20 -0.10,2.35 l -0.10,0.25 l -0.35,0.30 l -0.10,0.25 l 0.00,1.45 l 0.10,0.15 l 0.45,0.00 q 0.05,0.40 1.60,0.45 l 0.00,0.15 l 0.10,0.15 l 0.25,0.00 l 0.10,-0.15 l 0.00,-0.15 q 1.60,-0.05 1.60,-0.45 l 0.45,0.00 l 0.10,-0.15 l 0.00,-1.45 l -0.10,-0.25 l -0.35,-0.30 l -0.10,-0.25 l -0.10,-2.35 l -0.75,-2.80 l -0.25,-0.75 l 0.00,-0.45 l 0.10,-0.25 l -0.05,-0.20 l -0.05,-0.05 l 0.00,-0.20 l 0.10,0.00 l 0.00,-0.10 l -0.05,-0.20 l 0.00,-0.10 l -0.80,-0.20 q -0.75,0.00 -0.75,0.20 l 0.00,0.10 M -8.30,-0.10 l 0.00,0.45 l -0.25,0.75 l -0.75,2.80 l -0.10,2.35 l -0.10,0.25 l -0.40,0.30 l -0.10,0.25 l 0.00,1.45 l 0.15,0.15 l 0.40,0.00 q 0.10,0.40 1.60,0.45 l 0.00,0.15 l 0.15,0.15 l 0.20,0.00 l 0.15,-0.15 l 0.00,-0.15 q 1.55,-0.05 1.60,-0.45 l 0.40,0.00 l 0.15,-0.15 l 0.00,-1.45 l -0.10,-0.25 l -0.40,-0.30 l -0.10,-0.25 q 0.10,-1.15 -0.10,-2.35 q -0.15,-1.15 -0.75,-2.80 l -0.20,-0.75 l 0.00,-0.45 l 0.10,-0.25 l -0.05,-0.20 l -0.05,-0.05 l 0.00,-0.20 l 0.10,0.00 l 0.00,-0.10 l -0.10,-0.20 l 0.05,-0.10 l -0.80,-0.20 l -0.80,0.20 l 0.05,0.10 l -0.05,0.20 l 0.00,0.10 l 0.10,0.00 l 0.00,0.20 l -0.10,0.05 l -0.05,0.20 l 0.15,0.25 M -6.75,3.00 q 0.40,0.50 0.40,1.25 q 0.00,0.75 -0.40,1.25 q -0.35,0.50 -0.85,0.50 q -0.45,0.00 -0.80,-0.50 q -0.40,-0.50 -0.40,-1.25 q 0.00,-0.75 0.40,-1.25 l 0.80,-0.45 q 0.50,0.00 0.85,0.45 M 8.45,3.00 q 0.40,0.50 0.40,1.25 q 0.00,0.75 -0.40,1.25 q -0.30,0.50 -0.85,0.50 q -0.45,0.00 -0.85,-0.50 q -0.35,-0.55 -0.35,-1.25 q 0.00,-0.70 0.35,-1.25 q 0.40,-0.45 0.85,-0.45 q 0.55,0.00 0.85,0.45 "/>



<path fill="white" d="M 0.00,-10.00 "/>

</g>

</svg>