<svg xmlns:xlink="http://www.w3.org/1999/xlink" xmlns="http://www.w3.org/2000/svg" viewBox="-10.00 -10.00 20.00 20.00" fill="white">



<g id="shape_162">



<path fill="white" d="M 8.10,-6.30 M 8.10,-6.30 l -0.05,0.00 l 0.40,1.15 q 1.30,4.30 -1.45,8.60 q -1.00,1.60 -2.50,2.75 q -2.00,1.75 -4.50,2.40 l -4.35,0.20 q 1.05,0.95 2.20,1.20 q 0.25,0.00 0.45,-0.20 l 0.30,-0.50 l 0.60,-0.10 l 0.50,0.35 l 0.70,0.20 l 0.55,-0.35 l 0.40,-1.00 l 0.30,-0.10 l 0.45,0.30 l 0.90,0.25 q 0.50,-0.15 0.50,-0.80 q 0.00,-0.45 0.35,-0.70 q 0.35,-0.30 0.45,-0.30 l 0.50,0.25 l 0.55,0.05 q 0.65,-0.15 0.35,-0.85 q -0.15,-0.45 0.20,-0.75 q 0.25,-0.25 0.70,-0.15 q 0.65,0.10 0.90,-0.20 q 0.20,-0.25 -0.15,-0.75 q -0.20,-0.30 -0.10,-0.65 q 0.15,-0.30 0.50,-0.40 l 0.55,-0.05 l 0.45,-0.25 q 0.20,-0.30 -0.10,-0.60 l -0.50,-0.60 l 0.20,-0.20 q 0.10,-0.45 0.90,-0.70 l 0.40,-0.35 l -0.05,-0.50 l -0.50,-0.55 q -0.35,-0.30 -0.15,-0.50 q 0.40,-0.45 0.70,-0.50 l 0.35,-0.50 q 0.10,-0.45 -0.20,-0.65 l -0.45,-0.35 l -0.20,-0.35 l 0.20,-0.30 l 0.10,-0.15 l 0.35,-0.55 l -0.30,-0.60 l -1.40,-1.65 M 3.95,-7.20 l -0.05,0.20 l -0.40,0.15 l -0.15,-0.05 l -1.05,-0.55 q -0.35,-0.15 -0.20,-0.35 l 0.25,-0.25 q 0.95,0.15 1.55,0.70 l 0.05,0.15 M -0.15,-4.25 l 1.00,-0.85 l 1.35,-0.10 q 1.25,0.30 1.50,1.35 l 0.10,0.70 q 0.00,1.55 -0.80,2.65 l -0.70,0.90 q -0.70,0.75 -1.60,0.55 l -0.60,-0.40 q -0.50,-0.55 -0.65,-1.40 l -0.10,-1.40 q 0.05,-1.20 0.50,-2.00 M 3.20,-3.50 q -0.10,-1.00 -1.20,-1.20 q -1.05,-0.20 -1.60,0.70 q -0.50,0.85 -0.50,2.00 l 0.05,0.50 q 0.10,1.05 0.50,1.60 q 0.45,0.65 1.10,0.20 l 0.35,-0.30 l 1.00,-1.55 q 0.45,-1.05 0.30,-1.95 M 0.60,-0.65 q -0.45,-0.65 -0.35,-1.70 l 0.25,-1.10 q 0.45,-0.95 1.45,-0.70 q 0.95,0.20 1.05,1.25 q 0.00,0.65 -0.40,1.35 l -0.20,-0.15 q -0.45,-0.35 -0.85,0.00 q -0.35,0.35 0.05,0.75 l 0.30,0.35 q -0.35,0.35 -0.70,0.35 l -0.60,-0.40 M 4.20,4.70 q 2.75,-2.75 3.45,-6.25 q 0.50,-2.90 -0.65,-5.00 q -1.75,-3.45 -5.85,-3.45 q -4.05,0.00 -7.45,3.25 l -2.10,2.55 q -1.60,2.70 -1.60,5.35 q 0.00,1.50 0.40,2.75 q 1.00,2.75 3.80,3.80 q 2.40,0.80 5.15,-0.05 q 2.75,-0.80 4.85,-2.95 M 0.55,2.35 l -0.15,-0.45 q -0.05,-0.25 0.25,-0.35 q 0.20,-0.10 0.35,0.20 q 0.30,0.60 0.75,0.75 q 0.35,0.15 0.20,0.45 q -0.10,0.30 -0.50,0.20 l -0.65,-0.35 l -0.50,0.75 l -1.15,1.35 q -0.70,0.70 -1.65,0.65 q -0.80,-0.05 -1.55,-0.65 q -1.15,-1.00 -1.50,-2.75 l -0.15,-1.20 l -0.85,-0.10 l -0.35,-0.35 q 0.05,-0.20 0.35,-0.20 l 0.60,0.00 l 0.70,-0.25 q 0.30,-0.20 0.50,0.00 q 0.25,0.25 -0.05,0.50 l -0.40,0.30 q 0.50,1.00 1.65,1.40 l 4.00,0.15 l 0.10,-0.05 M -1.75,-8.15 l -0.85,0.00 l -0.20,-0.20 l 0.05,-0.25 l 0.55,-0.20 l 0.60,0.10 l 0.15,0.30 l -0.30,0.25 M -3.25,-1.55 q 1.05,-1.50 0.90,-2.80 l -0.30,-0.65 q -0.25,-0.35 -0.65,-0.40 q -1.00,-0.30 -1.55,0.40 q -0.50,0.70 -0.55,1.90 l 0.05,0.70 q 0.05,0.70 0.45,1.30 q 0.40,0.55 0.90,0.20 l 0.75,-0.65 M -4.30,-5.90 l 1.30,0.10 q 1.05,0.40 1.10,1.60 q 0.10,1.40 -0.80,2.75 l -0.40,0.50 l 0.70,0.10 q 0.65,0.15 1.05,0.60 q 0.50,0.70 -0.20,1.25 l -1.35,0.25 q -0.80,-0.15 -1.20,-0.65 l -0.20,-0.75 l -0.90,-0.60 q -0.50,-0.55 -0.60,-1.40 l -0.10,-1.25 q 0.15,-1.15 0.60,-1.75 l 1.00,-0.75 M -4.75,-1.85 q -0.70,-1.30 0.00,-2.60 q 0.35,-0.70 1.25,-0.50 q 0.80,0.20 0.85,1.05 q 0.05,0.65 -0.30,1.25 l -0.25,-0.15 q -0.45,-0.25 -0.65,0.00 q -0.30,0.30 -0.05,0.70 l 0.30,0.30 l -1.15,-0.05 M -1.95,0.70 q 0.65,-0.25 0.20,-0.75 q -0.35,-0.35 -0.85,-0.45 l -1.00,0.15 q -0.60,0.30 -0.10,0.75 q 0.35,0.35 1.15,0.50 l 0.60,-0.20 "/>



<path fill="white" d="M 8.10,-6.30 "/>

</g>

</svg>