<svg xmlns:xlink="http://www.w3.org/1999/xlink" xmlns="http://www.w3.org/2000/svg" viewBox="-15.95 -16.05 31.95 32.10" fill="white">



<g id="shape_153">



<path fill="white" d="M 8.30,-7.15 M 8.30,-7.15 l 0.00,3.80 l -1.20,0.00 l 0.70,-3.80 l 0.50,0.00 M 9.85,-7.15 l 0.70,3.80 l -1.15,0.00 l 0.00,-3.80 l 0.45,0.00 M 5.40,-2.15 l 6.90,0.00 l 0.00,1.30 l -6.90,0.00 l 0.00,-1.30 M 5.95,-3.35 l -1.60,0.00 l -0.05,3.60 l 0.95,0.05 l -3.65,14.35 l 0.00,1.40 l 14.40,0.00 l 0.00,-1.60 l -3.55,-14.15 l 0.90,0.00 l 0.00,-3.65 l -1.60,0.00 l -1.05,-4.95 l -3.65,0.00 l -1.10,4.95 M 13.25,9.75 l 0.70,3.55 l -3.85,-1.80 l 3.05,-1.80 l 0.10,0.05 M 12.90,7.80 l -2.75,-1.10 l 2.10,-1.30 l 0.20,0.10 l 0.45,2.30 M 12.05,3.60 l -1.95,-0.90 l 1.60,-1.00 l 0.35,1.90 M 9.40,0.30 l 2.00,0.00 l -2.00,1.35 l 0.00,-1.35 M 8.30,1.65 l -2.00,-1.35 l 2.00,0.00 l 0.00,1.35 M 8.30,5.75 l -2.00,-1.10 l 1.95,-1.05 l 0.05,2.15 M 9.40,3.60 l 2.00,0.95 l -1.95,1.20 l -0.05,-2.15 M 7.60,2.70 l -1.90,0.90 l 0.30,-1.90 l 1.60,1.00 M 9.40,7.60 l 2.80,1.25 l -2.80,1.70 l 0.00,-2.95 M 8.30,10.55 l -2.80,-1.70 l 2.65,-1.25 l 0.15,0.10 l 0.00,2.85 M 7.60,11.45 l -3.80,1.85 l 0.65,-3.60 l 3.15,1.75 M 5.30,5.40 l 2.25,1.30 l -2.75,1.15 l 0.50,-2.45 M 8.30,14.45 l -3.65,0.00 l 3.50,-2.00 l 0.15,0.00 l 0.00,2.00 M 9.55,12.45 l 3.45,2.00 l -3.60,0.00 l 0.00,-2.00 l 0.15,0.00 M 0.45,13.95 l -4.05,-18.65 l 1.10,0.00 l 0.00,-4.80 l -1.90,0.00 l -1.20,-6.55 l -4.15,0.00 l -1.25,6.55 l -1.80,0.00 l -0.10,4.70 l 1.10,0.10 l -4.15,18.95 l 0.00,1.80 l 16.40,0.00 l 0.00,-2.10 M -8.35,-14.55 l 0.00,5.05 l -1.30,0.00 l 0.80,-5.05 l 0.50,0.00 M -6.55,-14.55 l 0.85,5.05 l -1.35,0.00 l 0.00,-5.05 l 0.50,0.00 M -11.60,-7.95 l 7.90,0.00 l 0.00,1.70 l -7.90,0.00 l 0.00,-1.70 M -10.95,-2.85 l 1.80,1.30 l -2.10,1.20 l 0.30,-2.50 M -7.05,-4.70 l 2.25,0.00 l -2.25,1.80 l 0.00,-1.80 M -8.35,-2.90 l -2.25,-1.80 l 2.25,0.00 l 0.00,1.80 M -4.05,-0.35 l -2.20,-1.20 l 1.80,-1.30 l 0.40,2.50 M -3.60,2.10 l 0.55,3.10 l -3.15,-1.45 l 2.40,-1.70 l 0.20,0.05 M -8.35,5.00 l 0.00,3.80 l -3.20,-2.25 l 3.10,-1.60 l 0.10,0.05 M -6.85,11.35 l 3.95,2.60 l -4.15,0.00 l 0.00,-2.60 l 0.20,0.00 M -8.35,11.35 l 0.00,2.60 l -4.15,0.00 l 4.05,-2.60 l 0.10,0.00 M -2.65,7.75 l 0.80,4.70 l -4.40,-2.40 l 3.45,-2.40 l 0.15,0.10 M -7.00,2.45 l -0.05,-2.80 l 2.25,1.25 l -2.20,1.55 M -3.85,6.55 l -3.20,2.25 l 0.00,-3.85 l 3.20,1.60 M -11.75,2.05 l 2.55,1.70 l -3.15,1.55 l 0.60,-3.25 M -10.60,1.00 l 2.20,-1.35 l 0.05,2.80 l -2.25,-1.45 M -12.75,7.65 l 3.60,2.35 l -4.35,2.45 l 0.75,-4.80 "/>



<path fill="white" d="M 8.30,-7.15 "/>

</g>

</svg>