<svg xmlns:xlink="http://www.w3.org/1999/xlink" xmlns="http://www.w3.org/2000/svg" viewBox="-10.00 -10.00 20.00 20.00" fill="white">



<g id="shape_159">



<path fill="white" d="M 0.00,-10.00 M 0.00,-10.00 l -0.80,0.30 l -0.35,0.80 l 0.05,0.15 l 0.00,0.10 l 0.35,0.60 l -1.05,0.20 q -1.90,0.40 -3.35,1.65 l 0.05,-0.35 q 0.00,-0.45 -0.35,-0.80 q -0.35,-0.35 -0.80,-0.35 l -0.80,0.35 l -0.30,0.80 l 0.00,0.25 l 0.40,0.60 l 0.65,0.20 l 0.05,0.05 l 0.40,-0.05 q -1.20,1.25 -1.65,2.85 l -0.30,2.00 l -0.25,-0.35 q -0.35,-0.30 -0.85,-0.30 l -0.75,0.30 l -0.35,0.80 l 0.00,0.25 l 0.05,0.00 l 0.40,0.60 l 0.65,0.25 q 0.50,0.00 0.85,-0.35 l 0.25,-0.35 l 0.05,0.00 q 0.10,1.60 1.05,3.10 l 0.90,1.25 l -0.45,-0.10 q -0.45,0.00 -0.80,0.30 l -0.30,0.75 l 0.00,0.30 l 0.40,0.60 l 0.65,0.25 l 0.05,0.00 q 0.45,0.00 0.80,-0.35 q 0.35,-0.30 0.35,-0.80 l -0.05,-0.35 q 1.35,1.20 3.25,1.65 l 0.20,-0.75 q -1.50,-0.40 -2.60,-1.20 l 3.00,-3.15 l 0.75,0.35 l -2.10,7.95 l 5.25,0.00 l -2.00,-7.95 l 0.70,-0.35 l 3.00,3.15 q -1.10,0.85 -2.55,1.20 l 0.05,0.15 l -0.10,-0.25 l 0.20,0.80 q 1.90,-0.45 3.25,-1.60 l -0.05,0.35 l 0.00,0.15 l 0.05,0.10 l 0.00,0.05 q 0.20,0.80 1.05,0.80 l 0.85,-0.30 l 0.30,-0.80 l -0.30,-0.75 q -0.35,-0.35 -0.85,-0.35 l -0.40,0.10 l 0.35,-0.40 q 1.40,-1.75 1.60,-3.90 l 0.10,0.00 q 0.25,0.65 1.00,0.65 q 0.50,0.00 0.80,-0.30 l 0.35,-0.75 l -0.35,-0.80 q -0.30,-0.35 -0.80,-0.35 q -0.45,0.00 -0.80,0.35 l -0.25,0.40 q -0.05,-2.90 -2.00,-4.95 l 0.00,-0.05 l 0.40,0.10 q 0.50,0.00 0.85,-0.30 l 0.30,-0.80 l -0.30,-0.80 l -0.85,-0.30 q -0.45,0.00 -0.75,0.30 q -0.35,0.35 -0.35,0.80 l 0.00,0.10 l 0.05,0.10 l 0.00,0.05 l 0.10,0.25 l -0.35,-0.30 q -1.90,-1.45 -4.20,-1.65 l 0.10,-0.10 l 0.30,-0.75 l -0.30,-0.80 l -0.80,-0.30 M 4.75,-5.50 l -3.60,3.70 l -0.80,-0.25 l 0.00,-5.25 q 2.50,0.15 4.40,1.80 M 1.70,-1.35 l 3.55,-3.65 q 1.75,1.90 1.75,4.45 l 0.00,0.05 l -4.85,0.00 l -0.45,-0.85 M -6.95,-1.45 q 0.25,-2.00 1.70,-3.55 l 3.55,3.65 l -0.40,0.85 l -4.95,0.00 l 0.10,-0.95 M -4.65,-5.55 q 1.85,-1.60 4.30,-1.75 l 0.00,5.25 l -0.75,0.25 l -3.65,-3.70 l 0.10,-0.05 M -1.80,1.25 l -3.05,3.15 l -0.95,-1.10 q -1.00,-1.45 -1.15,-3.10 l 4.80,0.00 l 0.35,1.05 M 2.15,0.20 l 4.80,0.00 q -0.15,1.90 -1.40,3.40 l -0.70,0.75 l -3.05,-3.15 l 0.35,-1.00 "/>



<path fill="white" d="M 0.00,-10.00 "/>

</g>

</svg>