<svg xmlns:xlink="http://www.w3.org/1999/xlink" xmlns="http://www.w3.org/2000/svg" viewBox="-10.00 -10.00 20.00 20.00" fill="white">



<g id="shape_178">



<path fill="white" d="M 0.60,-9.25 M 0.60,-9.25 l -1.25,4.60 l -0.50,1.10 l -0.55,0.90 l -0.15,-1.50 l 0.00,-1.10 l 0.20,-0.60 l 0.25,-0.30 l 0.00,-0.25 l -0.10,-0.15 l 0.10,-0.30 l 0.15,0.05 l 0.00,-0.10 l 0.00,-0.30 l 0.10,-0.10 l 0.00,-0.05 l -1.10,-0.65 l -1.30,-0.10 l -0.05,0.00 l 0.05,0.20 l -0.20,0.20 l 0.00,0.15 l 0.10,0.00 l -0.10,0.35 l -0.10,0.05 l -0.15,0.25 l 0.10,0.35 l -0.20,0.60 l -0.60,0.90 q -1.35,1.65 -2.30,3.50 l -0.80,2.15 l -0.25,1.00 l -0.25,0.30 l -0.70,0.25 q -0.20,0.05 -0.25,0.20 l -0.60,2.05 l 0.20,0.20 l 0.60,0.20 l 0.05,0.05 l 0.55,0.65 l 1.40,0.60 l -0.80,1.30 l -1.00,1.05 l -0.90,0.65 l -0.20,0.60 l -0.05,0.30 l 20.00,-0.05 l -1.30,-2.85 l -1.00,-2.40 l -0.60,-1.95 l -0.95,-3.05 l -0.95,1.25 l -0.35,-0.70 l -0.35,-1.90 l -1.10,-2.45 l -0.95,-3.55 l -0.90,-1.60 l -0.50,-0.75 l -0.45,0.75 "/>



<path fill="white" d="M 0.60,-9.25 "/>

</g>

</svg>