<svg xmlns:xlink="http://www.w3.org/1999/xlink" xmlns="http://www.w3.org/2000/svg" viewBox="-10.00 -10.00 20.00 20.00" fill="white">



<g id="shape_181">



<path fill="white" d="M 8.95,-8.75 M 8.95,-8.75 l -0.85,2.25 l -0.25,1.00 q -0.35,1.55 -1.55,1.65 l 0.15,-1.05 l -0.50,1.00 q -0.25,0.75 -0.15,1.20 l 0.45,-0.90 l 1.45,-0.15 l 0.00,0.10 l 0.05,0.15 l -1.75,3.70 q -2.70,4.65 -7.10,7.65 l -0.45,-3.95 l -0.45,-5.40 l 0.25,-2.60 l 0.50,-2.20 l 0.10,0.00 q 0.75,0.00 1.00,-0.25 l 0.35,0.00 l 0.20,-0.45 l 0.25,0.00 l 0.00,-0.20 l -0.25,0.00 q 0.00,-0.25 -1.25,-0.50 l -0.95,-0.30 l 0.15,-0.15 l 0.15,-0.20 l -0.10,-0.05 l -0.10,0.00 l -0.50,-0.45 l -0.35,-0.10 l 0.00,-1.00 l -0.20,0.00 l -0.05,1.00 l -0.30,0.10 l -0.55,0.45 l -0.05,0.00 l -0.10,0.05 l 0.15,0.20 l 0.15,0.15 l -1.00,0.30 l -1.05,0.35 l -0.15,0.15 l -0.30,0.00 l 0.00,0.20 l 0.30,0.00 l 0.20,0.45 l 0.35,0.00 l 1.00,0.25 q 0.60,3.65 0.50,5.30 l -0.30,2.60 l -0.75,5.60 l -0.65,0.50 l -0.50,0.70 l -0.20,-0.25 q -0.60,-0.65 -1.50,-0.65 q -0.90,0.00 -1.55,0.65 q -0.60,0.60 -0.65,1.35 l -0.25,0.00 l 0.00,0.50 l 20.00,0.00 l 0.00,-0.50 l -0.25,0.00 l -0.40,-0.65 q -0.35,-0.35 -0.85,-0.35 l -0.70,0.25 l -0.15,-0.25 q -0.50,-0.55 -1.25,-0.55 q -0.70,0.00 -1.25,0.55 q -0.40,0.45 -0.45,1.00 l -4.35,0.00 q 2.65,-2.35 5.00,-6.40 q 1.95,-3.30 2.50,-6.60 l 0.20,-0.15 l 1.15,0.90 l -0.15,1.00 l 0.55,-1.05 l 0.15,-1.15 l -0.50,0.95 q -0.90,-0.75 -0.40,-2.25 l 0.35,-0.90 q 0.35,-0.95 0.50,-2.40 l 0.00,-1.45 l -0.75,1.25 "/>



<path fill="white" d="M 8.95,-8.75 "/>

</g>

</svg>