<svg xmlns:xlink="http://www.w3.org/1999/xlink" xmlns="http://www.w3.org/2000/svg" viewBox="-11.15 -11.00 22.30 22.00" fill="white">



<g id="shape_65">



<path fill="white" d="M 6.60,-6.70 M 6.60,-6.70 q 0.35,-0.40 -0.10,-0.75 q -2.10,-1.80 -4.70,-2.25 q -0.50,-0.05 -0.60,0.45 l 0.10,0.35 l 0.30,0.20 q 2.30,0.40 4.25,2.00 q 0.40,0.35 0.75,0.00 M 7.95,-6.25 q 1.15,1.40 1.70,3.00 q 0.30,-0.35 0.40,-0.85 l -0.25,-1.05 l -1.10,-1.70 l -1.40,-1.45 l -1.00,-0.40 q -0.50,-0.10 -0.95,0.20 q 1.60,0.90 2.60,2.25 M 0.00,-7.20 q -2.25,0.00 -3.70,1.00 q -1.35,0.95 -1.35,2.20 l 0.05,2.05 l -0.05,1.20 l -0.40,1.05 q -0.05,0.70 0.80,1.30 l -0.35,1.15 q -0.25,1.20 0.35,1.70 q 0.35,0.30 0.75,0.30 l 0.40,-0.15 l 0.30,-0.10 l 0.15,0.10 q 0.20,0.15 0.20,1.70 q 0.45,1.45 2.75,1.45 l 0.15,0.00 q 2.35,0.00 2.80,-1.45 l 0.20,-1.70 q 0.10,-0.10 0.15,-0.10 l 0.30,0.10 l 0.40,0.15 l 0.75,-0.30 q 0.60,-0.50 0.35,-1.70 l -0.35,-1.15 q 0.85,-0.60 0.80,-1.30 l -0.40,-1.05 q -0.10,-0.35 -0.05,-1.20 l 0.05,-2.05 q 0.00,-1.25 -1.35,-2.20 q -1.45,-1.00 -3.70,-1.00 M 1.95,-10.80 l -2.00,-0.20 l -2.00,0.20 q -1.30,0.25 -1.40,1.35 q 1.65,-0.60 3.40,-0.60 l 3.40,0.55 l -0.45,-0.85 q -0.40,-0.40 -0.95,-0.45 M 2.85,-8.20 l -2.90,-0.50 l -2.90,0.50 q 0.70,0.75 1.50,0.55 l 1.40,-0.10 l 1.40,0.10 q 0.90,0.20 1.50,-0.55 M 3.00,-3.10 l -0.90,0.00 q -0.10,0.80 -0.70,1.40 q -0.55,0.55 -1.35,0.60 l 0.00,0.95 l -0.45,0.00 l 0.00,-0.95 q -0.80,-0.05 -1.35,-0.60 q -0.60,-0.60 -0.70,-1.40 l -0.90,0.00 l 0.00,-0.45 l 0.90,0.00 q 0.10,-0.80 0.70,-1.40 q 0.55,-0.55 1.35,-0.65 l 0.00,-0.90 l 0.45,0.00 l 0.00,0.90 q 0.80,0.10 1.35,0.65 q 0.60,0.60 0.70,1.40 l 0.90,0.00 l 0.00,0.45 M 0.95,-4.45 l -1.00,-0.45 l 0.00,1.45 l 1.45,0.00 l -0.45,-1.00 M 1.40,-3.25 l -1.45,0.00 l 0.00,1.50 q 0.60,-0.05 1.00,-0.50 q 0.40,-0.40 0.45,-1.00 M 8.15,-4.75 l -0.25,0.30 q -0.05,0.25 0.05,0.40 q 1.15,2.10 1.05,4.55 q 0.00,0.50 0.45,0.55 q 0.55,0.00 0.55,-0.50 q 0.10,-2.70 -1.15,-5.10 q -0.30,-0.45 -0.70,-0.20 M 6.15,-4.80 l 0.80,1.20 q 0.40,0.75 1.35,0.85 q -0.55,-1.50 -1.45,-2.60 l -2.20,-2.00 q -0.10,0.95 0.50,1.55 l 1.00,1.00 M 11.15,0.60 q 0.00,-1.25 -1.00,-1.65 q 0.20,1.85 -0.15,3.45 q -0.40,1.70 -1.30,3.20 l 0.90,-0.25 l 0.65,-0.85 l 0.65,-1.90 l 0.25,-2.00 M 7.75,1.90 l -0.45,1.35 q -0.35,0.75 0.20,1.60 q 0.80,-1.25 1.10,-2.75 q 0.35,-1.60 0.15,-3.00 q -0.85,0.65 -0.85,1.35 l -0.15,1.45 M 8.25,3.75 q -0.95,2.25 -2.90,3.65 q -0.40,0.30 -0.10,0.70 l 0.30,0.20 l 0.40,-0.10 q 2.10,-1.45 3.25,-4.05 q 0.15,-0.55 -0.30,-0.70 q -0.50,-0.15 -0.65,0.30 M 3.90,1.55 l -0.60,1.30 l -0.55,0.10 l -0.85,-0.25 l -0.60,-0.50 l -0.55,-0.60 q -0.40,-0.35 -0.05,-0.75 q 0.10,-0.20 0.40,-0.20 l 0.85,0.15 l 0.15,0.00 l 1.30,-0.15 l 0.30,0.00 q 0.30,0.05 0.20,0.90 M 0.40,3.70 q 0.70,0.95 -0.05,1.00 l -0.55,-0.25 l -0.50,0.25 l -0.05,0.00 q -0.65,-0.05 -0.05,-1.00 l 0.20,-0.50 l 0.30,-0.50 l 0.00,-0.05 l 0.25,0.00 l 0.00,0.05 l 0.30,0.50 l 0.15,0.50 M 3.45,7.30 l -1.30,0.50 q -0.80,0.20 -1.15,1.15 l 2.85,-0.85 q 1.40,-0.65 2.45,-1.70 l -1.65,0.15 l -1.20,0.75 M 1.95,10.90 l 1.05,0.00 l 1.85,-0.70 l 1.75,-1.05 l 0.65,-0.85 q 0.20,-0.50 0.00,-0.95 q -1.20,1.25 -2.75,2.00 q -1.50,0.80 -3.30,1.00 l 0.75,0.55 M 2.95,9.60 l 0.00,-0.40 q -0.15,-0.50 -0.60,-0.35 q -2.45,0.65 -4.70,0.00 q -0.45,-0.10 -0.60,0.40 q -0.15,0.45 0.35,0.60 q 2.60,0.75 5.20,0.00 l 0.35,-0.25 M -10.90,-0.30 q -0.30,0.45 -0.25,1.00 l 0.25,2.00 l 0.65,1.90 l 0.70,0.85 l 0.90,0.25 q -1.00,-1.60 -1.30,-3.20 q -0.40,-1.70 -0.20,-3.45 l -0.75,0.65 M -1.90,-9.70 q -2.75,0.60 -4.65,2.30 q -0.40,0.35 -0.05,0.70 l 0.70,0.05 q 1.75,-1.55 4.20,-2.05 q 0.50,-0.10 0.40,-0.55 q -0.05,-0.50 -0.60,-0.45 M -8.75,-6.75 l -1.10,1.70 q -0.30,0.50 -0.20,1.05 l 0.35,0.80 q 0.55,-1.55 1.65,-3.00 q 1.05,-1.35 2.60,-2.30 l -0.95,-0.15 q -0.60,0.05 -1.00,0.45 l -1.35,1.45 M -5.25,-5.80 q 0.60,-0.55 0.50,-1.50 q -1.25,0.80 -2.20,2.00 q -0.90,1.10 -1.45,2.60 q 1.00,-0.10 1.40,-0.85 l 0.80,-1.20 l 0.95,-1.05 M -8.60,-4.75 l -0.30,0.25 q -1.25,2.40 -1.15,5.05 q 0.10,0.60 0.55,0.55 q 0.50,-0.10 0.50,-0.55 q -0.10,-2.45 1.05,-4.55 q 0.15,-0.50 -0.25,-0.75 l -0.40,0.00 M -1.75,-3.25 q 0.05,0.60 0.45,1.00 q 0.45,0.45 1.05,0.50 l 0.00,-1.50 l -1.50,0.00 M -1.30,-4.45 l -0.45,1.00 l 1.50,0.00 l 0.00,-1.45 q -0.60,0.05 -1.05,0.45 M -2.35,0.80 l 0.85,-0.15 l 0.45,0.20 q 0.30,0.40 -0.05,0.75 l -0.60,0.60 l -0.55,0.50 l -0.90,0.25 l -0.50,-0.10 q -0.45,-0.40 -0.60,-1.30 q -0.15,-0.85 0.20,-0.90 l 0.25,0.00 l 1.35,0.15 l 0.10,0.00 M -7.90,0.55 q -0.05,-0.80 -0.90,-1.35 q -0.15,1.35 0.20,2.95 q 0.35,1.55 1.15,2.75 q 0.50,-0.80 0.20,-1.60 l -0.45,-1.35 l -0.20,-1.40 M -9.20,4.20 q 1.05,2.40 3.25,4.05 l 0.40,0.10 l 0.35,-0.20 q 0.25,-0.40 -0.15,-0.70 q -2.00,-1.55 -2.90,-3.65 q -0.25,-0.45 -0.65,-0.30 l -0.30,0.30 l 0.00,0.40 M -6.50,9.25 l 1.70,1.00 l 1.85,0.70 l 1.10,-0.05 q 0.50,-0.15 0.75,-0.55 q -1.75,-0.20 -3.35,-0.90 l -2.80,-2.00 l 0.10,0.95 l 0.65,0.85 M -2.10,7.80 l -1.30,-0.50 l -1.25,-0.70 l -1.60,-0.15 q 1.15,1.10 2.45,1.70 q 1.35,0.65 2.85,0.80 q -0.30,-0.85 -1.15,-1.15 "/>



<path fill="white" d="M 6.60,-6.70 "/>

</g>

</svg>