<svg xmlns:xlink="http://www.w3.org/1999/xlink" xmlns="http://www.w3.org/2000/svg" viewBox="-10.00 -10.00 20.00 19.95" fill="white">



<g id="shape_184">



<path fill="white" d="M 1.75,-6.30 M 1.75,-6.30 l -0.15,0.10 l -0.05,0.00 l -0.05,-1.50 l -0.10,0.00 l 0.00,-0.60 l 0.05,-0.05 l 0.00,-0.05 l -0.20,-0.25 l -0.45,-0.60 l -0.15,0.10 l -0.10,0.20 l -0.05,0.25 l 0.40,2.30 l -0.05,0.05 l 0.00,0.15 l -0.05,0.20 l -0.05,-0.05 l -0.10,-0.15 l -0.05,0.00 l -0.30,-0.20 l -0.05,0.00 l -0.15,0.50 l -0.05,0.35 l 0.40,1.30 l 0.30,0.90 l 0.25,0.80 l 0.10,0.55 l 0.00,0.15 l 0.10,-0.05 l 0.25,-0.25 l 0.40,-0.10 l 0.40,-0.10 l -0.20,-3.00 l 0.00,-0.45 l 0.00,-0.40 l -0.20,-0.25 l -0.10,0.15 M 3.85,-5.65 l -0.25,0.25 l -0.10,-0.05 l -0.15,0.10 l -0.05,0.25 l 0.60,2.05 l 0.05,0.00 l 0.70,-0.15 l 0.05,-0.05 l 0.60,-0.10 l 0.10,0.00 l -0.25,-2.65 l -0.05,-0.05 l -0.10,0.15 l -0.20,0.40 l -0.05,0.05 l -0.20,0.00 l -0.15,-0.75 l -0.05,-0.20 l 0.00,-0.20 l -0.25,-1.80 l 0.00,-0.05 l -0.10,-0.10 l -0.15,-0.05 l -0.05,0.00 l -0.10,-0.10 l -0.10,0.10 l -0.20,0.50 l 0.00,0.15 l 0.05,0.15 l 0.05,0.30 l 0.40,1.40 l -0.05,0.10 l -0.05,0.10 l 0.05,0.25 M 3.40,0.90 l -0.05,-0.05 l 0.15,-0.25 l 0.65,-0.65 l 0.15,-0.15 l 0.10,-0.10 l 0.25,-0.20 l 0.95,-0.35 l 1.65,-0.50 l 0.45,0.00 l 0.35,0.10 l 0.45,0.05 l 0.35,0.00 l 0.50,-0.10 l 0.20,-0.10 l 0.35,-0.45 l 0.10,-0.20 l 0.00,-0.45 l -0.15,-0.40 l -0.30,-0.50 l -0.40,-0.35 l -0.10,-0.05 l -0.05,-0.05 l -0.30,0.00 l -0.35,0.05 l -0.35,0.10 l -0.25,0.20 l -0.15,0.05 l -0.10,0.10 l -0.20,0.25 l -0.25,0.20 q -0.15,0.20 -0.75,0.30 l -0.15,0.05 l -0.15,0.00 l -0.10,0.00 l -0.30,-0.10 l -0.05,-0.05 l -0.35,0.00 l -1.00,0.20 l -0.20,0.10 l -2.35,0.65 l -0.25,0.20 l -0.30,0.30 l -0.65,0.45 l -0.70,0.30 l -0.15,0.15 l -0.10,0.00 l -0.25,0.05 l -0.75,0.25 l -1.40,0.50 l -0.10,0.10 l -2.35,0.70 l -0.45,0.20 l -1.45,0.55 l -0.90,0.30 l -1.80,0.60 l -0.05,0.00 l 0.10,0.10 l 0.35,0.10 l 1.55,0.20 l 0.70,0.05 l 0.60,0.00 l 1.90,-0.10 l 0.05,-0.05 l 4.20,-0.80 l 0.75,-0.10 l 1.05,-0.20 l 0.10,-0.05 l 0.50,-0.15 l 0.25,-0.15 l 0.90,-0.40 l 0.40,-0.40 l 0.00,-0.05 M 9.45,-2.40 l -0.25,0.10 l 0.15,0.20 l 0.00,0.25 l -0.15,0.15 l -0.05,0.05 q -0.15,0.00 -0.20,-0.10 l -0.15,-0.15 l -0.10,0.20 q -0.05,0.20 -0.35,0.10 l -0.10,0.00 l -0.10,-0.20 l 0.00,-0.20 l -0.20,0.00 l -0.20,-0.15 l 0.00,-0.15 l 0.05,-0.20 l 0.15,-0.05 l 0.10,-0.05 l -0.30,-0.20 l 0.30,-0.40 l 0.30,0.15 l 0.20,-0.30 l 0.10,-0.10 l 0.35,0.10 l 0.10,0.20 l -0.05,0.25 l 0.30,0.00 l 0.15,0.10 l 0.05,0.30 l -0.10,0.10 M 5.85,-0.20 l -1.05,0.40 l 0.40,2.10 l 0.05,0.35 l 0.35,1.45 l 0.00,0.10 l 0.20,0.85 l 0.10,0.40 l 0.45,2.30 l 0.10,0.25 l 0.05,0.05 l 0.00,-0.25 l 0.30,0.90 l -0.10,-1.25 l -0.10,-0.95 l -0.20,-1.70 l -0.10,-0.10 l -0.05,-0.20 l -0.05,-0.50 q -0.10,-0.10 -0.05,-0.20 l 0.05,-0.15 l -0.30,-3.75 l -0.05,-0.10 M 2.25,5.05 l 0.10,0.00 l 0.10,0.35 l 0.05,0.10 l 0.05,0.05 l 0.15,0.70 l 0.20,0.20 l 0.50,1.70 l 0.10,0.10 l 0.00,0.10 l 0.10,0.00 l 0.00,-0.20 l -0.15,-0.55 l -0.50,-3.10 l -0.05,-0.05 l -0.15,-1.80 l 0.00,-0.20 l -0.05,-0.05 l 0.00,-0.25 l -0.95,0.40 l 0.00,0.10 l 0.20,1.50 l 0.20,0.80 l 0.10,0.10 M 0.00,3.05 l -0.05,-0.10 l -0.55,0.20 l -0.55,0.05 l 0.75,2.15 l 0.05,0.10 l 0.10,0.15 l 0.45,1.10 l 0.05,0.25 l 0.55,1.30 l 0.20,0.60 l 0.15,0.30 l 0.10,0.15 l 0.30,0.65 l 0.00,-0.05 l 0.00,-0.25 l 0.00,-0.05 l -0.05,-0.20 l -0.15,-0.70 l -0.65,-2.45 l 0.05,-0.20 l -0.10,-0.25 l -0.20,-0.65 l -0.45,-2.10 M -1.05,-1.85 q -0.05,-0.15 -0.20,-0.15 l -0.15,-0.55 l -0.05,-0.60 l -0.05,-0.05 l -0.15,-0.40 l -0.10,-0.45 l -0.05,-0.15 l -0.50,-0.25 l -0.15,-0.15 l -0.10,-0.30 l -0.05,0.00 l -0.10,-0.20 l -0.40,-1.45 l -0.10,-0.80 l -0.10,-0.10 l -0.15,-0.30 l 0.00,-0.20 l -0.10,-0.10 l 0.00,-0.05 l -0.05,-0.05 l -0.50,-0.10 l 0.00,0.10 l 0.05,0.15 l -0.05,0.15 l -0.30,0.35 l 0.00,0.15 l 0.05,0.00 l 0.05,0.25 l 0.70,1.95 l 0.25,0.45 l 0.00,0.10 l -0.15,0.00 l -0.10,-0.10 l -0.15,-0.05 l -0.15,0.05 l -0.10,0.10 l 0.00,0.25 l 0.05,0.35 l 1.15,2.75 l 0.25,0.90 l 1.55,-0.50 l -0.05,-1.00 M -6.70,-6.80 l 0.20,1.10 l -0.10,0.20 l -0.15,-0.05 l -0.80,-0.80 l -0.05,0.20 l 0.00,0.10 l 0.85,3.10 l 0.05,0.35 l 0.15,0.45 l 0.85,3.15 l 1.30,-0.40 l -0.40,-4.85 l -0.90,-1.05 l -0.05,-0.20 l 0.00,-0.15 l -0.60,-3.25 l -0.20,-0.50 l -0.35,-0.60 l -0.55,0.75 l 0.50,1.65 l 0.20,0.45 l 0.10,0.20 l -0.05,0.15 M -3.20,9.15 l 0.00,-0.10 l -0.85,-5.20 l -0.75,0.00 l 0.80,3.20 l 0.40,1.15 l 0.40,0.95 "/>



<path fill="white" d="M 1.75,-6.30 "/>

</g>

</svg>