<svg xmlns:xlink="http://www.w3.org/1999/xlink" xmlns="http://www.w3.org/2000/svg" viewBox="-10.00 -10.00 20.00 20.00" fill="white">



<g id="shape_175">



<path fill="white" d="M -9.05,-1.35 M -9.05,-1.35 q -0.65,0.75 -0.65,1.75 l 0.10,0.65 l -0.25,0.35 l 0.00,0.20 l 0.45,0.45 l 1.65,5.80 l -2.25,0.00 l 0.00,2.15 l 20.00,0.00 l 0.00,-2.15 l -4.05,0.00 l 3.20,-11.35 l 0.05,0.00 l 0.50,-0.15 l 0.20,-0.55 l 0.00,-0.25 l -0.40,-0.65 l 0.15,-1.05 q 0.00,-1.60 -1.10,-2.70 q -1.10,-1.15 -2.65,-1.15 q -1.55,0.00 -2.70,1.15 q -1.05,1.10 -1.05,2.70 q 0.00,0.50 0.15,1.05 q -0.40,0.25 -0.40,0.65 l 0.00,0.25 q 0.00,0.30 0.25,0.55 q 0.15,0.15 0.45,0.15 l 0.05,0.00 l 3.25,11.35 l -3.90,0.00 l 0.00,-4.10 l 1.05,-0.65 q 0.45,-0.50 0.45,-1.20 q 0.00,-0.80 -0.55,-1.35 q -0.55,-0.50 -1.30,-0.50 q -0.75,0.00 -1.30,0.50 q -0.55,0.55 -0.55,1.35 q 0.00,0.70 0.40,1.20 l 1.10,0.65 l 0.00,4.10 l -2.20,0.00 l 0.00,-7.95 q 1.05,-0.20 1.70,-1.00 q 0.65,-0.85 0.65,-1.90 q 0.00,-1.25 -0.80,-2.10 q -0.90,-0.90 -2.10,-0.90 q -1.25,0.00 -2.10,0.90 q -0.85,0.85 -0.85,2.10 q 0.00,1.05 0.70,1.90 q 0.65,0.80 1.65,1.00 l 0.00,7.95 l -1.75,0.00 l 0.00,-2.40 q 0.50,-0.10 0.80,-0.50 q 0.35,-0.40 0.35,-0.95 q 0.00,-0.60 -0.40,-1.05 q -0.40,-0.40 -1.05,-0.40 q -0.60,0.00 -1.00,0.40 q -0.45,0.45 -0.45,1.05 q 0.00,0.55 0.35,0.95 q 0.35,0.40 0.85,0.50 l 0.00,2.40 l -2.60,0.00 l 1.65,-5.80 q 0.45,0.00 0.45,-0.45 l 0.00,-0.20 l -0.25,-0.35 l 0.10,-0.65 q 0.00,-1.00 -0.70,-1.75 q -0.65,-0.70 -1.65,-0.70 q -0.95,0.00 -1.70,0.70 "/>



<path fill="white" d="M -9.05,-1.35 "/>

</g>

</svg>