<svg xmlns:xlink="http://www.w3.org/1999/xlink" xmlns="http://www.w3.org/2000/svg" viewBox="-10.00 -10.00 20.00 20.00" fill="white">



<g id="shape_169">



<path fill="white" d="M 10.00,-0.40 M 10.00,-0.40 l -0.25,-0.10 l -0.40,-0.10 l 0.15,0.00 l 0.15,-0.10 l -0.15,-0.05 l 0.15,-0.10 l -0.15,-0.10 l -1.40,0.10 l -0.60,-2.00 l -0.45,-0.95 l 0.05,-0.20 l -0.55,-0.85 l -0.45,-0.50 l -0.70,-0.55 l -1.85,-1.10 l -1.20,-0.50 l -0.60,-0.15 l -0.15,0.05 l -0.85,-0.15 l 0.00,-0.65 l -0.05,-0.10 l -0.10,0.00 l 0.00,-0.05 l -0.20,-0.20 l -0.10,0.00 l 0.00,-0.35 l -0.05,-0.15 l -0.10,0.05 l -0.05,-0.40 l -0.20,-0.40 l -0.15,0.15 l 0.00,0.80 l -0.15,0.10 l 0.00,-0.15 l -0.05,-0.10 l -0.10,0.00 l -0.15,-0.50 l -0.05,-0.05 l -0.10,0.05 l 0.00,0.10 l 0.00,0.70 l -0.05,0.15 l 0.05,1.05 l -1.50,0.20 l -1.45,0.45 l -1.10,0.60 l -1.75,1.45 l -0.75,1.15 l -0.40,1.00 l -0.30,1.50 q 0.00,0.15 -0.15,0.20 l -0.15,0.00 l -0.65,0.10 q -0.10,0.10 -0.25,0.15 l 0.10,0.05 l 1.00,0.15 l -0.55,-0.05 l -0.35,0.15 l -0.70,-0.10 l -0.15,0.10 l -0.05,0.15 l 0.15,0.10 l 1.20,0.05 l 0.20,0.05 l -0.05,0.05 l -0.15,0.05 l -0.55,0.05 l -0.10,0.10 l 0.15,0.10 l 0.20,0.00 l 0.20,-0.10 l 0.20,-0.05 l 0.50,0.10 l 0.05,0.05 l -0.70,0.00 l 0.10,0.15 l 0.60,0.00 l 0.05,0.70 l 0.30,1.25 l 0.75,1.65 l 1.00,1.45 l 1.10,0.80 l 1.40,0.65 l 0.55,0.20 l 0.00,2.80 l 0.50,0.10 q 0.35,-0.20 0.35,-0.60 l -0.05,-2.20 l 0.35,0.05 l 0.15,0.55 l 0.05,0.10 l 0.30,0.05 l 0.15,-0.35 l 0.00,-0.25 l 0.20,0.00 l -0.05,0.50 l 0.05,0.10 l 0.10,-0.05 l 0.05,-0.15 l 0.00,0.15 l 0.00,0.30 l 0.05,0.10 l 0.20,0.15 l 0.00,0.45 l 0.20,0.35 l 0.00,0.50 l 0.15,0.20 l 0.15,-0.10 l 0.15,-0.15 l 0.05,-0.10 l -0.05,-1.55 l 0.10,-0.20 l 0.10,-0.20 l 0.05,-0.15 l 0.00,-0.25 l 0.15,0.10 l -0.05,1.10 q -0.05,0.90 0.05,1.30 l 0.15,0.35 l 0.15,0.00 l 0.10,-0.20 l 0.05,-0.65 l -0.10,-2.00 l 0.35,-0.05 l 0.00,0.15 q 0.00,0.35 0.35,0.60 l 0.10,0.00 l 0.30,-0.05 l 0.10,-0.10 l 0.10,-0.30 l 0.10,-0.35 l 0.10,-0.15 l 0.15,-0.05 l 0.15,-0.10 l 0.45,0.00 l 0.10,-0.05 l 1.45,-0.55 l 0.80,-0.60 l 1.30,-1.50 l 0.75,-1.20 l 0.45,-1.30 l 0.15,-0.90 l 0.10,-0.10 l 1.10,0.05 l -0.05,-0.10 l -0.35,-0.10 l -0.10,-0.10 l 0.20,0.00 l 0.20,-0.10 l 0.20,0.00 l 0.10,-0.15 l 0.15,-0.05 l 0.10,-0.20 l 0.15,-0.15 M 2.15,-4.70 l -0.05,0.10 l -0.05,-0.10 l -0.05,0.05 l -0.20,0.00 l -0.35,0.05 l -0.40,0.15 l -0.30,0.20 l -0.15,0.05 l -0.65,0.70 l -0.60,-0.75 l -0.70,-0.30 l -0.65,-0.05 l -0.55,0.10 l -1.35,0.50 l -0.20,0.15 l -0.80,0.75 l -0.40,0.85 l -0.05,0.60 l 0.10,0.85 l 0.15,0.55 l 0.20,0.45 l 1.60,2.00 l 0.10,0.05 l 0.10,0.15 l 0.10,0.55 l 0.10,2.40 l -1.40,-0.80 l -1.10,-0.90 l -0.35,-0.35 l -0.45,-0.60 l -0.50,-1.35 l -0.15,-1.10 l 0.00,-0.15 l 0.30,-0.10 l -0.10,-0.10 l 0.20,0.00 l 0.10,-0.05 l -0.05,-0.15 l -0.05,-0.05 l 0.40,0.00 l 0.40,-0.10 l -0.20,-0.10 l -0.20,0.05 l -0.15,-0.20 l -0.65,0.00 l 0.00,-0.05 l 0.10,-0.05 l 0.45,0.00 l 0.15,-0.10 l -0.15,-0.10 l -0.55,-0.10 l 0.15,-0.55 l 0.30,-1.05 l 0.20,-0.45 l 0.20,-0.15 l 0.20,-0.40 l 1.10,-1.25 l 1.40,-0.85 l 0.50,-0.25 l 0.55,-0.15 l 1.40,-0.15 l 0.00,0.25 l 0.10,0.15 l 0.15,0.05 l 0.10,-0.05 l 0.05,-0.10 l 0.10,0.10 l 0.10,-0.10 l 0.00,0.10 l 0.10,0.10 l 0.05,0.65 l 0.05,0.25 l 0.10,0.10 l 0.10,-0.15 l -0.10,-0.90 l 0.15,0.10 l 0.05,-0.10 l 0.05,-0.25 l 0.05,0.10 l -0.05,0.40 l 0.00,0.05 l 0.10,0.10 l 0.10,-0.10 l 0.05,-0.55 l 0.00,-0.05 l 0.15,-0.10 l 0.70,0.10 l 1.80,0.65 l 0.95,0.60 l 0.80,0.65 l 0.75,0.85 l 0.60,0.85 l 0.25,0.30 l 0.10,0.30 l 0.05,0.10 l 0.15,0.20 l 0.15,0.85 l -0.20,0.00 l -0.15,0.05 l -0.10,0.00 l -0.55,0.15 l -0.10,0.05 l 0.10,0.15 l -0.20,0.00 l -0.10,0.15 l 0.15,0.10 l 0.00,0.05 l -0.05,0.10 l -0.15,0.05 l -0.10,0.05 l 0.10,0.10 l 0.20,0.00 l 0.55,-0.05 l 0.00,0.05 l 0.10,0.15 l -0.10,0.05 l 0.15,0.10 l 0.25,0.00 l -0.80,1.95 q -1.20,2.00 -3.60,3.15 l 0.00,-2.70 l 0.05,-0.25 l 1.95,-2.15 l 0.40,-0.55 l 0.50,-1.10 l 0.05,-0.75 l -0.10,-0.40 l -0.20,-0.50 l -0.25,-0.45 l -0.30,-0.40 l -0.20,-0.30 l -0.35,-0.20 l -0.40,-0.30 l -0.60,-0.20 l -0.40,0.05 l -0.05,0.00 l -0.15,-0.05 l -0.20,0.00 M 0.95,5.90 l 0.10,-1.55 l 0.10,0.00 l 0.10,0.75 l 0.00,0.75 l -0.30,0.05 M 0.55,6.85 l -0.15,0.00 l -0.05,-0.10 l 0.25,0.00 l -0.05,0.10 M -1.60,5.95 l -0.40,-0.15 l -0.05,-0.10 l 0.10,-0.90 l 0.00,-0.50 l 0.10,-0.15 l 0.05,0.00 l 0.00,0.40 l 0.20,0.20 l 0.00,1.20 M -0.75,5.95 l 0.00,-0.35 l -0.10,-0.20 l -0.10,0.10 l 0.00,0.45 l -0.10,0.00 l -0.05,-0.65 l 0.10,-0.70 l 0.25,0.70 l 0.05,0.65 l -0.05,0.00 "/>



<path fill="white" d="M 10.00,-0.40 "/>

</g>

</svg>