<svg xmlns:xlink="http://www.w3.org/1999/xlink" xmlns="http://www.w3.org/2000/svg" viewBox="-10.00 -10.00 14.30 20.05" fill="white">



<g id="shape_165">



<path fill="white" d="M 4.30,-9.35 M 4.30,-9.35 l -0.45,0.15 l 0.10,-0.10 q 0.25,-0.05 0.15,-0.20 l -0.05,-0.05 l -0.20,0.00 l -0.30,0.15 l -0.05,-0.05 l 0.00,-0.05 l -0.10,-0.10 l -1.65,0.45 l -0.40,0.05 l -0.40,0.10 l -0.05,0.05 l 0.00,0.20 l 0.00,0.40 l -0.05,0.15 l -0.10,0.15 l -0.05,0.00 l -0.50,-0.05 l -0.25,-0.15 l -0.10,0.00 l -0.15,0.05 l -0.45,0.00 l -1.10,0.00 l -1.15,-0.15 l -0.50,-0.05 l -0.80,0.05 l -0.50,0.05 l -0.05,0.00 l -0.30,-0.10 l 0.00,-0.05 l -0.20,0.15 l -0.10,0.00 l -0.05,0.10 l -0.25,0.10 l -0.20,0.05 l -0.15,-0.05 l -0.10,-0.25 l -0.15,-0.95 l -0.75,-0.10 l -0.45,-0.10 l -0.40,-0.05 l -0.50,-0.10 l -0.15,0.00 l -1.25,-0.30 l -0.15,0.05 l 0.10,0.10 l 0.20,0.15 l -0.10,0.20 l 0.10,0.25 l -0.05,0.10 l 0.20,0.35 l 0.30,0.45 l 0.05,0.00 l 0.20,0.25 l 0.15,0.25 l 0.15,0.20 l 0.10,0.15 l 0.05,0.00 l 0.20,0.25 l 0.45,0.55 l 0.30,0.40 l 0.05,0.10 l 0.40,0.50 l 0.10,0.55 l -0.10,0.55 l -0.15,0.65 l 0.00,0.25 l 0.05,0.30 q 0.00,0.05 -0.10,0.05 l -0.15,0.10 l -0.25,0.50 l -0.10,0.40 l 0.00,0.10 l -0.15,0.65 l -0.10,0.40 l 0.05,0.15 l -0.05,0.20 l 0.00,0.10 l 0.10,0.20 l 0.95,1.60 l 0.15,0.20 l 0.35,0.40 l 0.05,0.05 l 0.05,0.10 l 0.20,0.20 l 0.10,0.25 l 0.05,0.05 q 0.35,0.10 0.35,0.50 l 0.00,1.10 l -0.05,0.20 l 0.00,0.40 l 0.10,0.30 l 0.05,0.10 l 0.10,-0.10 l 0.05,0.10 l 0.15,0.30 l 0.30,1.90 l 0.10,0.30 l 0.15,0.50 l 0.00,0.05 l 0.40,0.95 l 0.15,0.25 l 0.25,0.55 l 0.25,0.25 l 0.25,-0.15 l -0.10,-0.20 l -0.15,-0.20 l -0.15,-0.35 l -0.10,-0.30 l 0.00,-0.05 l -0.20,-1.35 l -0.05,-0.65 l -0.10,-2.05 l 0.05,-0.10 l 0.10,0.10 l 0.10,1.25 l 0.10,0.20 l 0.35,0.50 l 0.15,0.00 l 0.00,-0.20 l -0.15,-0.40 l 0.00,-1.15 l 0.15,-0.25 l 0.05,0.00 l 0.05,0.05 l 0.05,0.90 l 0.05,0.35 l 0.20,0.25 l 0.15,-0.05 l 0.05,-0.25 l 0.05,-0.80 l 0.05,-0.10 l 0.10,0.00 l 0.00,1.25 l 0.20,0.40 l 0.25,-1.00 l 0.15,-0.45 l 0.10,-0.05 l 0.00,0.05 l -0.10,0.65 l 0.10,0.40 l 0.15,-0.25 l 0.05,0.15 l 0.05,-0.15 l 0.10,-0.70 l 0.10,-0.25 q 0.10,0.10 0.05,0.60 l -0.20,0.75 l 0.05,0.05 l 0.20,-0.25 q 0.30,-0.50 0.25,-0.80 l -0.05,-0.65 l 0.10,-0.20 l 0.05,-0.05 l 0.10,0.00 l 0.05,0.20 l 0.00,0.55 l -0.20,1.05 l -0.05,0.15 l -0.10,0.55 l -0.15,0.40 l -0.40,1.45 l -0.10,0.20 l -0.25,0.40 l -0.05,0.10 l 0.20,0.05 l 0.20,-0.15 l 0.20,-0.25 l 0.20,-0.25 l 0.10,-0.20 l 0.10,-0.15 l 0.10,-0.20 l 0.15,-0.25 l 0.20,-0.50 l 0.10,-0.15 l 0.05,-0.25 l 0.10,-0.20 l 0.30,-0.90 l 0.00,-0.15 l 0.05,-0.35 l 0.05,0.05 l 0.10,-0.60 l 0.15,-0.20 l 0.20,-0.30 l -0.10,-1.40 l 0.10,-0.50 l 0.40,-0.40 l 0.65,-1.00 l 0.15,-0.20 l 0.15,-0.20 l 0.05,-0.05 l 0.20,-0.40 l 0.25,-0.30 l 0.15,-0.45 l 0.05,-0.30 l -0.05,-0.40 l -0.10,-0.30 l -0.15,-0.95 l -0.10,-0.25 l -0.10,-0.10 l 0.00,-0.25 l -0.05,-0.30 l 0.00,-0.30 l -0.05,-0.05 l -0.15,-1.20 l -0.10,-0.30 l 0.00,-0.45 l 0.05,-0.25 l 0.15,-0.10 l -0.05,-0.20 q 0.05,0.10 0.15,0.05 l 0.15,-0.10 l 0.40,-0.55 l 0.05,0.00 l 0.15,-0.15 l 0.15,-0.20 l 0.15,-0.15 l 0.10,-0.10 l 0.25,-0.30 l 0.30,-0.45 l 0.20,-0.20 l 0.20,-0.35 l 0.35,-0.50 l 0.05,-0.35 M 0.85,-1.40 l -0.10,0.05 l -0.20,0.00 l -0.05,0.05 l -1.25,0.35 l -0.35,0.15 l -0.05,-0.05 l -0.05,-0.10 l 0.00,-0.10 l 1.05,-1.00 l 0.25,-0.30 l 0.10,-0.05 l 0.15,0.10 l 0.40,0.75 l 0.10,0.05 l 0.00,0.10 M -3.90,-0.85 q -0.05,0.10 -0.15,0.05 l -0.05,-0.05 l -1.60,-0.30 l -0.20,0.00 l -0.50,1.20 l -0.10,-0.35 l 0.50,-1.25 l 0.25,-0.45 l 0.10,-0.35 l 0.20,-0.30 l 1.60,1.55 l 0.00,0.15 l -0.05,0.10 M -1.60,1.20 l -0.40,0.40 l -0.40,0.45 l -0.15,0.25 l 0.00,0.10 l 0.00,0.25 l -0.25,0.10 l -0.05,-0.10 l -0.10,-0.35 l 0.00,-0.20 l -0.15,-0.15 l -0.70,-0.65 l 0.00,-0.15 l 0.15,-0.05 l 0.15,0.05 l 0.40,0.00 l 0.90,0.05 l 0.30,-0.10 l 0.35,0.00 l -0.05,0.10 "/>



<path fill="white" d="M 4.30,-9.35 "/>

</g>

</svg>