<svg xmlns:xlink="http://www.w3.org/1999/xlink" xmlns="http://www.w3.org/2000/svg" viewBox="-9.95 -7.45 20.00 18.35" fill="white">



<g id="shape_91">



<path fill="white" d="M 0.40,-6.95 M 0.40,-6.95 q -0.20,-0.50 -0.95,-0.50 q -1.00,0.05 -1.45,1.00 l 0.00,0.05 l -0.30,0.65 l 0.15,0.80 l 0.35,0.60 l 0.05,0.05 l -0.05,0.05 l 0.05,0.50 l 0.45,0.15 l 0.00,-0.05 l 0.30,0.30 q -0.50,0.10 -1.00,0.60 q -0.85,0.70 -1.55,2.25 l -0.35,1.00 l -0.35,0.90 l 0.10,0.85 l 0.25,0.25 l 0.35,0.30 l 0.05,0.00 l 0.40,0.30 l 0.10,-0.50 l 0.00,-0.05 l -0.10,-0.45 l 0.15,0.00 l 0.45,0.00 l 0.05,-0.10 l -0.15,-0.20 l -0.20,-0.10 l -0.10,-0.20 l 0.40,-0.90 l 1.00,-1.15 l -0.05,0.10 l -0.35,2.45 l -0.50,2.60 l -0.05,0.70 l 0.05,0.40 l 0.10,0.05 l -0.10,0.45 q 0.10,0.50 0.40,0.50 l 0.60,-0.30 l 0.25,-0.60 l 0.10,-0.10 l 1.25,-2.90 l 0.50,1.35 l 0.25,1.35 l 0.15,0.00 l 0.00,0.05 l 0.10,0.35 l 0.30,0.10 l 0.10,-0.10 l 0.05,0.00 l 0.30,0.10 l 0.80,0.10 q 0.60,0.00 0.60,-0.30 l -0.25,-0.25 l -0.65,-0.30 l 0.00,-0.15 l -0.30,-1.95 l -0.30,-1.65 q -0.20,-0.65 -0.10,-1.15 l 0.10,-0.60 l 0.75,1.20 l 0.05,0.35 l -0.35,0.60 l 0.05,0.10 l 0.10,0.00 l 0.00,0.20 l 0.15,0.05 l 0.10,0.15 l 0.30,0.05 l 0.20,-0.10 l 0.70,-0.95 l -0.25,-1.05 l -0.20,-1.00 q -0.35,-1.15 -0.90,-1.65 q -0.55,-0.65 -1.50,-0.85 q 0.50,-0.40 0.60,-1.10 l -0.15,-1.25 l -0.15,-0.25 q 0.30,-0.35 -0.20,-0.85 l -0.75,-0.35 M 9.35,-1.25 q -0.45,0.05 -0.45,0.50 q 0.15,2.55 -0.95,4.60 q -0.20,0.40 0.20,0.65 q 0.50,0.25 0.70,-0.25 q 1.20,-2.25 1.05,-5.05 l -0.15,-0.35 l -0.40,-0.10 M -9.85,-0.75 l -0.10,0.35 q -0.10,2.70 1.20,5.05 l 0.30,0.25 l 0.45,-0.05 l 0.25,-0.30 l -0.10,-0.40 q -1.20,-2.00 -1.15,-4.50 q -0.05,-0.50 -0.50,-0.55 l -0.35,0.15 M -9.70,5.30 l 1.15,1.60 l 1.40,1.40 l 1.00,0.45 l 0.90,-0.20 l -2.55,-2.20 q -1.20,-1.40 -1.80,-3.00 l -0.30,0.90 l 0.20,1.05 M -6.10,4.85 l -0.80,-1.15 q -0.40,-0.70 -1.35,-0.80 l 1.45,2.55 l 2.25,1.95 q 0.10,-1.00 -0.55,-1.55 l -1.00,-1.00 M -6.10,6.60 l -0.35,0.20 l -0.15,0.35 l 0.20,0.35 q 2.10,1.75 4.70,2.15 l 0.40,-0.05 l 0.20,-0.35 q 0.05,-0.55 -0.40,-0.60 q -2.40,-0.40 -4.25,-1.95 l -0.35,-0.10 M -2.75,8.15 l 2.95,0.40 l 2.85,-0.50 q -0.65,-0.70 -1.50,-0.55 l -1.40,0.20 l -1.40,-0.10 q -0.85,-0.10 -1.50,0.55 M -1.75,10.80 l 2.00,0.10 l 1.90,-0.20 l 0.95,-0.50 l 0.45,-0.85 l -3.35,0.65 l -3.40,-0.50 q 0.10,0.50 0.50,0.80 l 0.95,0.50 M 6.25,4.55 l -0.95,1.10 q -0.65,0.45 -0.50,1.50 l 2.15,-2.05 q 0.90,-1.15 1.40,-2.60 q -1.05,0.20 -1.40,0.85 l -0.70,1.20 M 10.05,3.80 q -0.05,-0.50 -0.40,-0.85 q -0.50,1.60 -1.60,3.05 q -0.90,1.25 -2.50,2.30 l 0.95,0.15 l 0.90,-0.45 l 1.40,-1.45 l 1.05,-1.70 l 0.20,-1.05 M 1.40,9.20 q 0.10,0.50 0.60,0.40 q 2.55,-0.55 4.65,-2.35 l 0.15,-0.35 l -0.15,-0.40 q -0.35,-0.35 -0.70,0.00 q -1.85,1.65 -4.15,2.05 q -0.45,0.10 -0.40,0.65 "/>



<path fill="white" d="M 0.40,-6.95 "/>

</g>

</svg>