<svg xmlns:xlink="http://www.w3.org/1999/xlink" xmlns="http://www.w3.org/2000/svg" viewBox="-11.00 -10.85 22.00 21.75" fill="white">



<g id="shape_11">



<path fill="white" d="M 6.95,-8.30 M 6.95,-8.30 l -0.70,-0.85 l -1.70,-0.95 q -0.95,-0.45 -1.85,-0.70 q -1.25,-0.25 -1.80,0.65 q 1.85,0.15 3.30,0.85 q 1.55,0.70 2.80,1.90 l -0.05,-0.90 M 5.30,-8.25 l -0.30,0.20 q -0.30,0.40 0.15,0.70 q 1.90,1.35 2.95,3.55 q 0.05,0.20 0.25,0.25 l 0.40,0.00 q 0.45,-0.15 0.25,-0.65 q -1.15,-2.45 -3.30,-4.00 l -0.40,-0.05 M 0.60,-6.35 l -0.35,-0.25 l -0.05,0.00 l -0.25,0.10 l -0.15,0.10 l -0.40,0.10 l -0.35,0.50 l -0.50,0.60 l 0.00,0.90 l 0.30,0.60 l 0.05,0.05 l -0.05,0.00 q -0.20,0.25 0.00,0.50 l 0.40,0.25 l 0.25,0.25 l -1.05,0.15 l -1.00,-0.20 q -0.70,-0.35 -1.15,-1.20 l 0.05,-0.15 l 0.25,-0.15 l 0.30,-0.30 l -0.15,-0.30 l -0.40,0.00 l -0.10,0.10 l 0.00,-0.55 l -0.30,-0.55 l -0.25,0.00 l -0.15,0.20 l 0.15,0.40 l 0.00,0.30 l -0.30,-0.60 l -0.40,-0.10 l -0.25,0.20 l 0.25,0.35 l 0.20,0.15 l 0.05,0.20 l -0.20,-0.05 l -0.45,-0.15 l -0.35,0.20 q 0.00,0.35 0.50,0.35 l 0.40,0.40 l 0.20,0.25 q 0.10,1.20 1.10,2.10 q 0.95,0.80 2.25,1.15 q 0.15,1.20 -0.05,2.85 l -0.10,0.35 l -0.50,2.55 l 0.00,1.10 l 0.10,0.00 l -0.10,0.45 q 0.10,0.55 0.45,0.50 q 0.35,-0.05 0.55,-0.25 q 0.30,-0.30 0.30,-0.60 l 0.10,-0.10 l 0.05,-0.15 l 0.40,-1.05 l 0.75,-1.70 l 0.50,1.40 l 0.25,1.25 l 0.15,0.05 l 0.10,0.35 l 0.30,0.10 l 0.10,-0.10 l 0.10,0.05 l 0.25,0.10 l 0.85,0.10 q 0.60,-0.10 0.60,-0.35 l -0.30,-0.25 l -0.60,-0.25 l -0.35,-3.35 l -0.55,-3.05 q 1.20,-0.40 1.95,-1.15 q 0.90,-0.90 0.95,-1.95 l 0.20,-0.25 q 0.20,-0.40 0.45,-0.40 q 0.50,-0.05 0.45,-0.35 l -0.35,-0.25 l -0.45,0.20 l -0.20,0.05 l 0.05,-0.20 l 0.20,-0.15 l 0.25,-0.35 l -0.20,-0.25 l -0.45,0.15 l -0.30,0.60 l 0.05,-0.35 l 0.10,-0.35 l -0.15,-0.25 l -0.25,0.05 q -0.30,0.15 -0.30,0.55 l 0.00,0.55 l -0.10,-0.10 l -0.40,0.00 l -0.15,0.35 l 0.30,0.25 l 0.25,0.15 l 0.05,0.15 q -0.45,0.85 -1.15,1.15 l -1.10,0.25 q 0.45,-0.35 0.55,-0.95 q 0.15,-0.55 -0.05,-1.10 l -0.10,-0.30 l 0.10,-0.20 l -0.10,-0.50 l 0.05,-0.50 q -0.15,-0.30 -0.45,-0.30 l 0.10,0.25 l -0.15,0.10 l -0.15,-0.05 l -0.15,-0.15 l -0.35,-0.20 l -0.45,-0.10 M 1.95,-7.70 l 1.30,0.50 l 1.20,0.70 l 1.60,0.10 q -1.00,-0.95 -2.45,-1.65 l -2.85,-0.75 q 0.45,1.00 1.20,1.10 M 2.40,-9.70 q -2.75,-0.60 -5.15,0.10 q -0.50,0.20 -0.35,0.65 q 0.15,0.45 0.65,0.35 l 4.60,-0.10 q 0.45,0.10 0.60,-0.40 l -0.05,-0.35 l -0.30,-0.25 M 9.35,-5.45 l -0.90,-0.25 q 0.95,1.50 1.35,3.10 q 0.40,1.80 0.25,3.40 l 0.70,-0.60 q 0.30,-0.50 0.25,-1.05 l -0.30,-1.95 l -0.65,-1.85 l -0.70,-0.80 M 7.15,-3.30 l 0.45,1.30 l 0.20,1.40 q 0.05,0.80 0.90,1.30 q 0.10,-1.55 -0.25,-2.90 q -0.30,-1.45 -1.20,-2.70 q -0.45,0.85 -0.10,1.60 M 9.35,-1.15 q -0.50,0.05 -0.45,0.55 q 0.10,2.50 -0.95,4.50 q -0.20,0.50 0.20,0.70 q 0.45,0.20 0.70,-0.25 q 1.20,-2.35 1.05,-5.05 q -0.05,-0.50 -0.55,-0.45 M 6.25,4.65 l -0.95,1.05 q -0.65,0.45 -0.50,1.50 l 2.15,-2.00 l 1.35,-2.60 q -1.00,0.15 -1.35,0.85 l -0.70,1.20 M 10.05,3.90 l -0.45,-0.90 q -0.50,1.60 -1.55,3.00 q -1.00,1.40 -2.50,2.35 l 0.95,0.15 l 0.95,-0.45 l 1.30,-1.45 l 1.10,-1.70 l 0.20,-1.00 M 0.20,7.70 l -1.40,-0.10 q -0.75,-0.10 -1.50,0.60 q 1.35,0.50 2.90,0.40 l 2.90,-0.50 q -0.70,-0.70 -1.55,-0.55 l -1.35,0.15 M 1.45,9.20 q 0.05,0.50 0.60,0.40 q 2.50,-0.50 4.60,-2.30 l 0.15,-0.40 l -0.15,-0.35 l -0.70,-0.05 q -1.85,1.70 -4.10,2.10 q -0.50,0.10 -0.40,0.60 M 2.20,10.70 l 0.95,-0.50 l 0.40,-0.85 l -3.30,0.65 l -3.35,-0.50 q 0.05,0.50 0.45,0.80 q 0.40,0.40 0.95,0.45 l 1.95,0.15 l 1.95,-0.20 M -10.75,-2.30 l -0.25,1.95 l 0.25,1.05 l 0.75,0.60 q -0.25,-1.60 0.10,-3.40 q 0.35,-1.70 1.25,-3.20 l -0.90,0.30 l -0.65,0.80 l -0.55,1.90 M -2.10,-10.65 l -1.05,0.00 l -1.85,0.75 l -1.65,1.05 l -0.60,0.85 l -0.05,0.95 l 2.75,-2.05 q 1.40,-0.75 3.20,-1.00 l -0.75,-0.55 M -3.55,-7.05 l 1.30,-0.55 q 0.85,-0.25 1.10,-1.15 q -1.60,0.25 -2.80,0.90 l -2.35,1.75 q 0.95,0.30 1.55,-0.20 l 1.20,-0.75 M -6.05,-7.95 q -2.10,1.65 -3.10,4.10 l 0.00,0.40 l 0.30,0.25 q 0.40,0.20 0.65,-0.30 q 0.85,-2.10 2.80,-3.65 q 0.35,-0.30 0.10,-0.70 l -0.75,-0.10 M -7.65,-1.65 l 0.40,-1.35 q 0.30,-0.85 -0.20,-1.60 l -1.10,2.75 q -0.30,1.45 -0.10,2.95 q 0.80,-0.55 0.85,-1.40 l 0.15,-1.35 M -9.75,-0.65 l -0.10,0.35 q -0.10,2.75 1.20,5.00 l 0.30,0.30 l 0.40,-0.10 l 0.25,-0.30 l -0.05,-0.40 q -1.20,-2.00 -1.10,-4.45 q -0.10,-0.45 -0.50,-0.55 l -0.40,0.15 M -9.55,5.35 l 1.10,1.60 l 1.40,1.40 q 0.40,0.35 1.00,0.45 l 0.90,-0.20 q -1.40,-0.85 -2.60,-2.20 q -1.10,-1.35 -1.70,-2.95 l -0.35,0.85 q -0.05,0.60 0.25,1.05 M -6.75,3.80 q -0.50,-0.75 -1.40,-0.80 l 1.50,2.50 q 0.80,1.05 2.20,1.90 q 0.10,-0.95 -0.55,-1.50 l -1.00,-1.00 l -0.75,-1.10 M -6.30,7.50 q 2.05,1.75 4.65,2.15 l 0.40,-0.05 l 0.20,-0.35 q 0.10,-0.50 -0.40,-0.55 q -2.40,-0.40 -4.20,-1.95 l -0.70,0.05 l -0.15,0.40 l 0.20,0.30 "/>



<path fill="white" d="M 6.95,-8.30 "/>

</g>

</svg>