<svg xmlns:xlink="http://www.w3.org/1999/xlink" xmlns="http://www.w3.org/2000/svg" viewBox="0 0 16.35 35" fill="white">
  <g transform="matrix(1, 0, 0, 1, 8.1, 14.0)">
    <path d="M6.65 19.45 L6.65 1.1 -6.55 1.1 -6.55 19.45 6.65 19.45 M3.45 6.3 L3.45 4.6 -3.25 4.6 -3.25 6.3 3.45 6.3 M5.0 3.0 L5.0 7.85 -4.85 7.85 -4.85 3.0 5.0 3.0 M4.85 10.7 Q5.2 11.05 5.2 11.55 L4.85 12.4 4.05 12.65 3.25 12.4 Q2.9 12.05 2.9 11.55 2.9 11.05 3.25 10.7 L4.05 10.45 Q4.55 10.45 4.85 10.7 M-8.1 -0.5 L8.25 -0.5 8.25 21.0 -8.1 21.0 -8.1 -0.5" fill="#ffffff" fill-rule="evenodd"/>
    <path d="M3.8 -6.65 L0.8 -6.65 0.8 0.4 -0.45 0.4 -0.45 -6.65 -3.45 -6.65 -3.45 -14.0 3.8 -14.0 3.8 -6.65" fill="#ffffff" fill-rule="evenodd"/>
  </g>
</svg>