<svg xmlns:xlink="http://www.w3.org/1999/xlink" xmlns="http://www.w3.org/2000/svg" viewBox="0 0 12.45 19" fill="white">
  <g transform="matrix(1, 0, 0, 1, 6.2, 9.5)">
    <path d="M-1.2 0.75 L-1.2 2.75 3.35 2.75 3.35 0.75 -1.2 0.75 M3.35 -0.8 L3.35 -2.9 -1.2 -2.9 -1.2 -0.8 3.35 -0.8 M3.1 -8.85 L6.25 -9.5 6.25 9.5 -6.2 9.5 -6.2 2.85 -2.7 2.85 -2.7 -2.9 -4.6 -2.9 -4.6 -3.9 -0.65 -3.9 -0.65 -5.9 -4.2 -5.9 -4.2 -6.9 -0.65 -6.9 -0.65 -7.65 3.1 -7.65 3.1 -8.85" fill="#ffffff" fill-rule="evenodd"/>
  </g>
</svg>