<svg xmlns:xlink="http://www.w3.org/1999/xlink" xmlns="http://www.w3.org/2000/svg" viewBox="-10.00 -10.00 20.05 20.00" fill="white">



<g id="shape_156">



<path fill="white" d="M 1.95,-9.50 M 1.95,-9.50 q -1.30,-0.65 -3.00,-0.45 q -0.65,0.00 -0.95,0.65 l -0.15,0.85 l -2.10,0.30 q -1.15,0.45 -1.70,1.05 l -0.80,1.10 q -0.25,0.75 0.00,1.35 q -0.75,0.20 -1.15,1.05 q -0.40,0.95 0.05,1.50 q -2.50,1.30 -2.10,2.55 q 0.70,1.30 2.80,1.15 q 1.85,-0.15 2.55,-0.90 q 0.55,0.15 1.00,1.00 l 0.85,1.30 q 0.80,-0.10 0.70,0.65 q -0.05,0.80 -0.55,1.00 l -0.10,0.65 l -0.05,0.55 l -0.25,0.30 l -0.35,0.25 l -0.50,0.60 l -0.90,0.20 l -0.95,0.25 l -1.05,0.70 l -0.95,0.50 q 0.80,0.20 2.10,-0.40 l 0.60,0.10 l 0.50,0.00 l 1.20,-0.25 l -0.55,0.50 l -0.65,0.40 l -1.40,0.70 l 2.25,-0.65 l 1.70,-0.65 q 0.30,0.00 0.80,0.30 q 0.30,0.15 0.85,0.55 l 0.95,0.40 l 0.80,0.35 l -0.25,-0.60 l -0.45,-0.55 l -0.80,-1.05 l 3.40,1.05 q -0.25,-0.60 -1.25,-1.15 l -1.60,-0.85 q -0.20,-0.95 0.35,-2.15 q 0.50,-1.05 0.20,-1.80 q 0.15,-0.55 0.85,-0.85 l 1.05,-0.60 l 1.30,0.15 q 1.00,-0.05 1.70,-0.60 q 1.15,0.25 2.60,-0.60 q 1.55,-0.85 1.50,-2.10 q -0.10,-0.95 -1.55,-1.40 l -1.75,-0.35 l 0.35,-0.65 l 0.05,-0.70 q -0.05,-0.80 -1.15,-1.35 l -1.90,-0.50 q 0.65,-0.55 0.25,-1.30 q -0.45,-0.70 -1.15,-0.55 q -0.30,-0.55 -1.25,-1.00 "/>



<path fill="white" d="M 1.95,-9.50 "/>

</g>

</svg>